<?xml version="1.0" encoding="UTF-8"?>
<svg id="Capa_1" data-name="Capa 1" xmlns="http://www.w3.org/2000/svg" xmlns:xlink="http://www.w3.org/1999/xlink" viewBox="0 0 469.22 252.58">
  <defs>
    <style>
      .cls-1, .cls-2 {
        fill: #fff;
      }

      .cls-3 {
        letter-spacing: -.03em;
      }

      .cls-4 {
        stroke: #8b2252;
      }

      .cls-4, .cls-5, .cls-6 {
        fill: none;
      }

      .cls-4, .cls-6 {
        stroke-linejoin: round;
        stroke-width: 1.07px;
      }

      .cls-7 {
        fill: #6d94cd;
      }

      .cls-7, .cls-8, .cls-9, .cls-10, .cls-11, .cls-12 {
        opacity: .7;
      }

      .cls-13 {
        clip-path: url(#clippath-2);
      }

      .cls-14 {
        font-size: 13px;
      }

      .cls-14, .cls-15, .cls-16 {
        fill: #1d1d1b;
      }

      .cls-14, .cls-17 {
        font-family: Calibri-Bold, Calibri;
        font-weight: 700;
      }

      .cls-18 {
        letter-spacing: -.03em;
      }

      .cls-19 {
        font-size: 12px;
      }

      .cls-19, .cls-20 {
        font-family: ArialMT, Arial;
      }

      .cls-8 {
        fill: #c272ac;
      }

      .cls-21 {
        letter-spacing: -.01em;
      }

      .cls-22 {
        letter-spacing: .01em;
      }

      .cls-23 {
        letter-spacing: -.02em;
      }

      .cls-24 {
        letter-spacing: .01em;
      }

      .cls-9 {
        fill: #2ab6be;
      }

      .cls-10 {
        fill: #3baa3c;
      }

      .cls-25 {
        letter-spacing: -.02em;
      }

      .cls-26 {
        clip-path: url(#clippath);
      }

      .cls-20 {
        font-size: 14px;
      }

      .cls-2 {
        stroke: #fff;
        stroke-width: 1.02px;
      }

      .cls-2, .cls-27 {
        stroke-miterlimit: 10;
      }

      .cls-15 {
        font-family: Calibri-LightItalic, Calibri;
        font-style: italic;
        font-weight: 300;
      }

      .cls-15, .cls-17 {
        font-size: 10px;
      }

      .cls-28 {
        letter-spacing: 0em;
      }

      .cls-27 {
        stroke: #a3195b;
        stroke-width: 3px;
      }

      .cls-27, .cls-29 {
        fill: #a3195b;
      }

      .cls-11 {
        fill: #ee756e;
      }

      .cls-30 {
        letter-spacing: -.01em;
      }

      .cls-12 {
        fill: #b7a00c;
      }

      .cls-31 {
        letter-spacing: -.01em;
      }

      .cls-32 {
        letter-spacing: -.02em;
      }

      .cls-6 {
        stroke: #e5e4e4;
      }
    </style>
    <clipPath id="clippath">
      <rect class="cls-5" x="18.69" y="13.43" width="431" height="221"/>
    </clipPath>
    <clipPath id="clippath-2">
      <rect class="cls-5" x="165.06" y="20.15" width="270.93" height="168.02"/>
    </clipPath>
  </defs>
  <g class="cls-26">
    <g class="cls-13">
      <line class="cls-6" x1="165.06" y1="172.42" x2="435.99" y2="172.42"/>
      <line class="cls-6" x1="165.06" y1="146.17" x2="435.99" y2="146.17"/>
      <line class="cls-6" x1="165.06" y1="119.91" x2="435.99" y2="119.91"/>
      <line class="cls-6" x1="165.06" y1="93.66" x2="435.99" y2="93.66"/>
      <line class="cls-6" x1="165.06" y1="67.41" x2="435.99" y2="67.41"/>
      <line class="cls-6" x1="165.06" y1="41.16" x2="435.99" y2="41.16"/>
      <line class="cls-6" x1="186.3" y1="188.17" x2="186.3" y2="20.15"/>
      <line class="cls-6" x1="250.07" y1="188.17" x2="250.07" y2="20.15"/>
      <line class="cls-6" x1="313.83" y1="188.17" x2="313.83" y2="20.15"/>
      <line class="cls-6" x1="377.6" y1="188.17" x2="377.6" y2="20.15"/>
      <polygon class="cls-8" points="177.38 41.15 177.86 41.15 178.34 41.15 178.82 41.15 179.31 41.14 179.79 41.14 180.27 41.14 180.75 41.14 181.23 41.14 181.72 41.13 182.2 41.13 182.68 41.13 183.16 41.12 183.64 41.12 184.13 41.11 184.61 41.11 185.09 41.1 185.57 41.09 186.05 41.08 186.54 41.08 187.02 41.07 187.5 41.06 187.98 41.04 188.46 41.03 188.95 41.02 189.43 41 189.91 40.98 190.39 40.97 190.87 40.95 191.36 40.93 191.84 40.9 192.32 40.88 192.8 40.85 193.28 40.82 193.77 40.79 194.25 40.76 194.73 40.72 195.21 40.68 195.69 40.64 196.18 40.6 196.66 40.55 197.14 40.5 197.62 40.45 198.1 40.4 198.59 40.34 199.07 40.28 199.55 40.22 200.03 40.15 200.51 40.09 201 40.02 201.48 39.94 201.96 39.87 202.44 39.79 202.92 39.71 203.41 39.63 203.89 39.54 204.37 39.46 204.85 39.37 205.33 39.28 205.82 39.19 206.3 39.1 206.78 39.01 207.26 38.91 207.74 38.82 208.23 38.73 208.71 38.64 209.19 38.55 209.67 38.46 210.15 38.37 210.64 38.29 211.12 38.21 211.6 38.13 212.08 38.05 212.56 37.98 213.05 37.91 213.53 37.84 214.01 37.78 214.49 37.72 214.97 37.67 215.46 37.63 215.94 37.59 216.42 37.55 216.9 37.52 217.38 37.5 217.87 37.48 218.35 37.47 218.83 37.46 219.31 37.47 219.79 37.47 220.28 37.48 220.76 37.5 221.24 37.53 221.72 37.56 222.2 37.59 222.69 37.64 223.17 37.68 223.65 37.73 224.13 37.79 224.61 37.85 225.1 37.91 225.58 37.98 226.06 38.05 226.54 38.12 227.02 38.19 227.51 38.27 227.99 38.35 228.47 38.43 228.95 38.51 229.43 38.59 229.92 38.67 230.4 38.74 230.88 38.82 231.36 38.9 231.84 38.97 232.33 39.04 232.81 39.11 233.29 39.18 233.77 39.24 234.25 39.3 234.74 39.36 235.22 39.41 235.7 39.45 236.18 39.49 236.66 39.53 237.15 39.56 237.63 39.59 238.11 39.6 238.59 39.62 239.07 39.62 239.56 39.62 240.04 39.62 240.52 39.6 241 39.59 241.48 39.56 241.97 39.53 242.45 39.49 242.93 39.44 243.41 39.39 243.89 39.33 244.38 39.26 244.86 39.18 245.34 39.1 245.82 39.01 246.3 38.92 246.79 38.82 247.27 38.71 247.75 38.59 248.23 38.47 248.71 38.34 249.2 38.2 249.68 38.06 250.16 37.91 250.64 37.76 251.12 37.6 251.61 37.43 252.09 37.26 252.57 37.08 253.05 36.9 253.53 36.7 254.02 36.51 254.5 36.3 254.98 36.1 255.46 35.88 255.94 35.66 256.43 35.44 256.91 35.21 257.39 34.98 257.87 34.74 258.35 34.49 258.84 34.24 259.32 33.99 259.8 33.73 260.28 33.46 260.76 33.19 261.25 32.92 261.73 32.65 262.21 32.37 262.69 32.08 263.17 31.79 263.66 31.51 264.14 31.21 264.62 30.92 265.1 30.62 265.58 30.32 266.07 30.02 266.55 29.73 267.03 29.43 267.51 29.13 267.99 28.83 268.48 28.53 268.96 28.24 269.44 27.95 269.92 27.66 270.4 27.37 270.89 27.09 271.37 26.82 271.85 26.55 272.33 26.29 272.81 26.03 273.3 25.78 273.78 25.54 274.26 25.31 274.74 25.09 275.22 24.87 275.71 24.67 276.19 24.47 276.67 24.29 277.15 24.12 277.63 23.95 278.12 23.8 278.6 23.66 279.08 23.53 279.56 23.41 280.04 23.3 280.53 23.2 281.01 23.1 281.49 23.02 281.97 22.95 282.45 22.88 282.94 22.82 283.42 22.77 283.9 22.73 284.38 22.69 284.86 22.66 285.34 22.63 285.83 22.6 286.31 22.57 286.79 22.55 287.27 22.53 287.75 22.51 288.24 22.49 288.72 22.46 289.2 22.44 289.68 22.41 290.16 22.38 290.65 22.35 291.13 22.31 291.61 22.27 292.09 22.23 292.57 22.18 293.06 22.13 293.54 22.08 294.02 22.02 294.5 21.95 294.98 21.88 295.47 21.81 295.95 21.74 296.43 21.67 296.91 21.59 297.39 21.51 297.88 21.43 298.36 21.35 298.84 21.27 299.32 21.2 299.8 21.13 300.29 21.06 300.77 20.99 301.25 20.93 301.73 20.88 302.21 20.83 302.7 20.79 303.18 20.76 303.66 20.74 304.14 20.73 304.62 20.73 305.11 20.74 305.59 20.76 306.07 20.8 306.55 20.85 307.03 20.91 307.52 20.98 308 21.07 308.48 21.18 308.96 21.29 309.44 21.42 309.93 21.56 310.41 21.72 310.89 21.88 311.37 22.06 311.85 22.25 312.34 22.45 312.82 22.66 313.3 22.88 313.78 23.11 314.26 23.35 314.75 23.59 315.23 23.84 315.71 24.09 316.19 24.34 316.67 24.59 317.16 24.85 317.64 25.1 318.12 25.35 318.6 25.6 319.08 25.84 319.57 26.08 320.05 26.31 320.53 26.52 321.01 26.73 321.49 26.93 321.98 27.12 322.46 27.29 322.94 27.45 323.42 27.59 323.9 27.72 324.39 27.83 324.87 27.92 325.35 27.99 325.83 28.04 326.31 28.08 326.8 28.1 327.28 28.09 327.76 28.06 328.24 28.02 328.72 27.95 329.21 27.86 329.69 27.76 330.17 27.64 330.65 27.49 331.13 27.33 331.62 27.15 332.1 26.96 332.58 26.75 333.06 26.52 333.54 26.29 334.03 26.04 334.51 25.78 334.99 25.51 335.47 25.24 335.95 24.95 336.44 24.67 336.92 24.38 337.4 24.09 337.88 23.8 338.36 23.52 338.85 23.23 339.33 22.96 339.81 22.69 340.29 22.43 340.77 22.18 341.26 21.95 341.74 21.73 342.22 21.53 342.7 21.34 343.18 21.18 343.67 21.03 344.15 20.9 344.63 20.8 345.11 20.72 345.59 20.67 346.08 20.63 346.56 20.63 347.04 20.66 347.52 20.7 348 20.77 348.49 20.88 348.97 21 349.45 21.15 349.93 21.34 350.41 21.54 350.9 21.77 351.38 22.02 351.86 22.3 352.34 22.6 352.82 22.91 353.31 23.25 353.79 23.61 354.27 23.98 354.75 24.37 355.23 24.78 355.72 25.19 356.2 25.62 356.68 26.05 357.16 26.5 357.64 26.95 358.13 27.41 358.61 27.87 359.09 28.33 359.57 28.78 360.05 29.24 360.54 29.7 361.02 30.15 361.5 30.59 361.98 31.03 362.46 31.46 362.95 31.88 363.43 32.29 363.91 32.69 364.39 33.07 364.87 33.44 365.36 33.8 365.84 34.14 366.32 34.47 366.8 34.79 367.28 35.08 367.77 35.36 368.25 35.63 368.73 35.88 369.21 36.11 369.69 36.32 370.18 36.52 370.66 36.7 371.14 36.87 371.62 37.02 372.1 37.16 372.59 37.28 373.07 37.38 373.55 37.48 374.03 37.56 374.51 37.63 375 37.68 375.48 37.73 375.96 37.77 376.44 37.79 376.92 37.81 377.41 37.82 377.89 37.82 378.37 37.81 378.85 37.8 379.33 37.78 379.82 37.76 380.3 37.74 380.78 37.71 381.26 37.68 381.74 37.65 382.23 37.62 382.71 37.59 383.19 37.56 383.67 37.53 384.15 37.5 384.64 37.47 385.12 37.45 385.6 37.43 386.08 37.42 386.56 37.4 387.05 37.4 387.53 37.39 388.01 37.39 388.49 37.4 388.97 37.41 389.46 37.43 389.94 37.45 390.42 37.47 390.9 37.51 391.38 37.54 391.87 37.59 392.35 37.63 392.83 37.68 393.31 37.74 393.79 37.8 394.28 37.87 394.76 37.94 395.24 38.01 395.72 38.09 396.2 38.17 396.69 38.25 397.17 38.33 397.65 38.42 398.13 38.51 398.61 38.6 399.1 38.69 399.58 38.78 400.06 38.87 400.54 38.97 401.02 39.06 401.51 39.15 401.99 39.24 402.47 39.33 402.95 39.42 403.43 39.51 403.92 39.59 404.4 39.67 404.88 39.76 405.36 39.83 405.84 39.91 406.33 39.99 406.81 40.06 407.29 40.13 407.77 40.19 408.25 40.26 408.74 40.32 409.22 40.38 409.7 40.43 410.18 40.48 410.66 40.53 411.15 40.58 411.63 40.62 412.11 40.67 412.59 40.71 413.07 40.74 413.56 40.78 414.04 40.81 414.52 40.84 415 40.87 415.48 40.89 415.97 40.92 416.45 40.94 416.93 40.96 417.41 40.98 417.89 40.99 418.38 41.01 418.86 41.03 419.34 41.04 419.82 41.05 420.3 41.06 420.79 41.07 421.27 41.08 421.75 41.09 422.23 41.1 422.71 41.1 423.2 41.11 423.68 41.11 423.68 41.16 423.2 41.16 422.71 41.16 422.23 41.16 421.75 41.16 421.27 41.16 420.79 41.16 420.3 41.16 419.82 41.16 419.34 41.16 418.86 41.16 418.38 41.16 417.89 41.16 417.41 41.16 416.93 41.16 416.45 41.16 415.97 41.16 415.48 41.16 415 41.16 414.52 41.16 414.04 41.16 413.56 41.16 413.07 41.16 412.59 41.16 412.11 41.16 411.63 41.16 411.15 41.16 410.66 41.16 410.18 41.16 409.7 41.16 409.22 41.16 408.74 41.16 408.25 41.16 407.77 41.16 407.29 41.16 406.81 41.16 406.33 41.16 405.84 41.16 405.36 41.16 404.88 41.16 404.4 41.16 403.92 41.16 403.43 41.16 402.95 41.16 402.47 41.16 401.99 41.16 401.51 41.16 401.02 41.16 400.54 41.16 400.06 41.16 399.58 41.16 399.1 41.16 398.61 41.16 398.13 41.16 397.65 41.16 397.17 41.16 396.69 41.16 396.2 41.16 395.72 41.16 395.24 41.16 394.76 41.16 394.28 41.16 393.79 41.16 393.31 41.16 392.83 41.16 392.35 41.16 391.87 41.16 391.38 41.16 390.9 41.16 390.42 41.16 389.94 41.16 389.46 41.16 388.97 41.16 388.49 41.16 388.01 41.16 387.53 41.16 387.05 41.16 386.56 41.16 386.08 41.16 385.6 41.16 385.12 41.16 384.64 41.16 384.15 41.16 383.67 41.16 383.19 41.16 382.71 41.16 382.23 41.16 381.74 41.16 381.26 41.16 380.78 41.16 380.3 41.16 379.82 41.16 379.33 41.16 378.85 41.16 378.37 41.16 377.89 41.16 377.41 41.16 376.92 41.16 376.44 41.16 375.96 41.16 375.48 41.16 375 41.16 374.51 41.16 374.03 41.16 373.55 41.16 373.07 41.16 372.59 41.16 372.1 41.16 371.62 41.16 371.14 41.16 370.66 41.16 370.18 41.16 369.69 41.16 369.21 41.16 368.73 41.16 368.25 41.16 367.77 41.16 367.28 41.16 366.8 41.16 366.32 41.16 365.84 41.16 365.36 41.16 364.87 41.16 364.39 41.16 363.91 41.16 363.43 41.16 362.95 41.16 362.46 41.16 361.98 41.16 361.5 41.16 361.02 41.16 360.54 41.16 360.05 41.16 359.57 41.16 359.09 41.16 358.61 41.16 358.13 41.16 357.64 41.16 357.16 41.16 356.68 41.16 356.2 41.16 355.72 41.16 355.23 41.16 354.75 41.16 354.27 41.16 353.79 41.16 353.31 41.16 352.82 41.16 352.34 41.16 351.86 41.16 351.38 41.16 350.9 41.16 350.41 41.16 349.93 41.16 349.45 41.16 348.97 41.16 348.49 41.16 348 41.16 347.52 41.16 347.04 41.16 346.56 41.16 346.08 41.16 345.59 41.16 345.11 41.16 344.63 41.16 344.15 41.16 343.67 41.16 343.18 41.16 342.7 41.16 342.22 41.16 341.74 41.16 341.26 41.16 340.77 41.16 340.29 41.16 339.81 41.16 339.33 41.16 338.85 41.16 338.36 41.16 337.88 41.16 337.4 41.16 336.92 41.16 336.44 41.16 335.95 41.16 335.47 41.16 334.99 41.16 334.51 41.16 334.03 41.16 333.54 41.16 333.06 41.16 332.58 41.16 332.1 41.16 331.62 41.16 331.13 41.16 330.65 41.16 330.17 41.16 329.69 41.16 329.21 41.16 328.72 41.16 328.24 41.16 327.76 41.16 327.28 41.16 326.8 41.16 326.31 41.16 325.83 41.16 325.35 41.16 324.87 41.16 324.39 41.16 323.9 41.16 323.42 41.16 322.94 41.16 322.46 41.16 321.98 41.16 321.49 41.16 321.01 41.16 320.53 41.16 320.05 41.16 319.57 41.16 319.08 41.16 318.6 41.16 318.12 41.16 317.64 41.16 317.16 41.16 316.67 41.16 316.19 41.16 315.71 41.16 315.23 41.16 314.75 41.16 314.26 41.16 313.78 41.16 313.3 41.16 312.82 41.16 312.34 41.16 311.85 41.16 311.37 41.16 310.89 41.16 310.41 41.16 309.93 41.16 309.44 41.16 308.96 41.16 308.48 41.16 308 41.16 307.52 41.16 307.03 41.16 306.55 41.16 306.07 41.16 305.59 41.16 305.11 41.16 304.62 41.16 304.14 41.16 303.66 41.16 303.18 41.16 302.7 41.16 302.21 41.16 301.73 41.16 301.25 41.16 300.77 41.16 300.29 41.16 299.8 41.16 299.32 41.16 298.84 41.16 298.36 41.16 297.88 41.16 297.39 41.16 296.91 41.16 296.43 41.16 295.95 41.16 295.47 41.16 294.98 41.16 294.5 41.16 294.02 41.16 293.54 41.16 293.06 41.16 292.57 41.16 292.09 41.16 291.61 41.16 291.13 41.16 290.65 41.16 290.16 41.16 289.68 41.16 289.2 41.16 288.72 41.16 288.24 41.16 287.75 41.16 287.27 41.16 286.79 41.16 286.31 41.16 285.83 41.16 285.34 41.16 284.86 41.16 284.38 41.16 283.9 41.16 283.42 41.16 282.94 41.16 282.45 41.16 281.97 41.16 281.49 41.16 281.01 41.16 280.53 41.16 280.04 41.16 279.56 41.16 279.08 41.16 278.6 41.16 278.12 41.16 277.63 41.16 277.15 41.16 276.67 41.16 276.19 41.16 275.71 41.16 275.22 41.16 274.74 41.16 274.26 41.16 273.78 41.16 273.3 41.16 272.81 41.16 272.33 41.16 271.85 41.16 271.37 41.16 270.89 41.16 270.4 41.16 269.92 41.16 269.44 41.16 268.96 41.16 268.48 41.16 267.99 41.16 267.51 41.16 267.03 41.16 266.55 41.16 266.07 41.16 265.58 41.16 265.1 41.16 264.62 41.16 264.14 41.16 263.66 41.16 263.17 41.16 262.69 41.16 262.21 41.16 261.73 41.16 261.25 41.16 260.76 41.16 260.28 41.16 259.8 41.16 259.32 41.16 258.84 41.16 258.35 41.16 257.87 41.16 257.39 41.16 256.91 41.16 256.43 41.16 255.94 41.16 255.46 41.16 254.98 41.16 254.5 41.16 254.02 41.16 253.53 41.16 253.05 41.16 252.57 41.16 252.09 41.16 251.61 41.16 251.12 41.16 250.64 41.16 250.16 41.16 249.68 41.16 249.2 41.16 248.71 41.16 248.23 41.16 247.75 41.16 247.27 41.16 246.79 41.16 246.3 41.16 245.82 41.16 245.34 41.16 244.86 41.16 244.38 41.16 243.89 41.16 243.41 41.16 242.93 41.16 242.45 41.16 241.97 41.16 241.48 41.16 241 41.16 240.52 41.16 240.04 41.16 239.56 41.16 239.07 41.16 238.59 41.16 238.11 41.16 237.63 41.16 237.15 41.16 236.66 41.16 236.18 41.16 235.7 41.16 235.22 41.16 234.74 41.16 234.25 41.16 233.77 41.16 233.29 41.16 232.81 41.16 232.33 41.16 231.84 41.16 231.36 41.16 230.88 41.16 230.4 41.16 229.92 41.16 229.43 41.16 228.95 41.16 228.47 41.16 227.99 41.16 227.51 41.16 227.02 41.16 226.54 41.16 226.06 41.16 225.58 41.16 225.1 41.16 224.61 41.16 224.13 41.16 223.65 41.16 223.17 41.16 222.69 41.16 222.2 41.16 221.72 41.16 221.24 41.16 220.76 41.16 220.28 41.16 219.79 41.16 219.31 41.16 218.83 41.16 218.35 41.16 217.87 41.16 217.38 41.16 216.9 41.16 216.42 41.16 215.94 41.16 215.46 41.16 214.97 41.16 214.49 41.16 214.01 41.16 213.53 41.16 213.05 41.16 212.56 41.16 212.08 41.16 211.6 41.16 211.12 41.16 210.64 41.16 210.15 41.16 209.67 41.16 209.19 41.16 208.71 41.16 208.23 41.16 207.74 41.16 207.26 41.16 206.78 41.16 206.3 41.16 205.82 41.16 205.33 41.16 204.85 41.16 204.37 41.16 203.89 41.16 203.41 41.16 202.92 41.16 202.44 41.16 201.96 41.16 201.48 41.16 201 41.16 200.51 41.16 200.03 41.16 199.55 41.16 199.07 41.16 198.59 41.16 198.1 41.16 197.62 41.16 197.14 41.16 196.66 41.16 196.18 41.16 195.69 41.16 195.21 41.16 194.73 41.16 194.25 41.16 193.77 41.16 193.28 41.16 192.8 41.16 192.32 41.16 191.84 41.16 191.36 41.16 190.87 41.16 190.39 41.16 189.91 41.16 189.43 41.16 188.95 41.16 188.46 41.16 187.98 41.16 187.5 41.16 187.02 41.16 186.54 41.16 186.05 41.16 185.57 41.16 185.09 41.16 184.61 41.16 184.13 41.16 183.64 41.16 183.16 41.16 182.68 41.16 182.2 41.16 181.72 41.16 181.23 41.16 180.75 41.16 180.27 41.16 179.79 41.16 179.31 41.16 178.82 41.16 178.34 41.16 177.86 41.16 177.38 41.16 177.38 41.15"/>
      <polygon class="cls-7" points="177.38 67.41 177.86 67.41 178.34 67.41 178.82 67.41 179.31 67.41 179.79 67.41 180.27 67.41 180.75 67.41 181.23 67.41 181.72 67.41 182.2 67.41 182.68 67.41 183.16 67.41 183.64 67.41 184.13 67.41 184.61 67.41 185.09 67.41 185.57 67.41 186.05 67.41 186.54 67.41 187.02 67.41 187.5 67.41 187.98 67.41 188.46 67.41 188.95 67.41 189.43 67.41 189.91 67.41 190.39 67.41 190.87 67.41 191.36 67.41 191.84 67.41 192.32 67.41 192.8 67.41 193.28 67.41 193.77 67.41 194.25 67.41 194.73 67.41 195.21 67.41 195.69 67.41 196.18 67.41 196.66 67.41 197.14 67.41 197.62 67.41 198.1 67.41 198.59 67.41 199.07 67.41 199.55 67.41 200.03 67.41 200.51 67.41 201 67.41 201.48 67.41 201.96 67.41 202.44 67.41 202.92 67.41 203.41 67.41 203.89 67.41 204.37 67.41 204.85 67.41 205.33 67.41 205.82 67.41 206.3 67.41 206.78 67.41 207.26 67.4 207.74 67.4 208.23 67.4 208.71 67.4 209.19 67.4 209.67 67.4 210.15 67.4 210.64 67.4 211.12 67.4 211.6 67.39 212.08 67.39 212.56 67.39 213.05 67.39 213.53 67.38 214.01 67.38 214.49 67.38 214.97 67.37 215.46 67.37 215.94 67.36 216.42 67.36 216.9 67.35 217.38 67.34 217.87 67.33 218.35 67.32 218.83 67.31 219.31 67.3 219.79 67.29 220.28 67.28 220.76 67.26 221.24 67.25 221.72 67.23 222.2 67.21 222.69 67.19 223.17 67.17 223.65 67.15 224.13 67.12 224.61 67.09 225.1 67.06 225.58 67.03 226.06 66.99 226.54 66.96 227.02 66.92 227.51 66.88 227.99 66.83 228.47 66.79 228.95 66.74 229.43 66.68 229.92 66.63 230.4 66.57 230.88 66.51 231.36 66.45 231.84 66.38 232.33 66.31 232.81 66.24 233.29 66.17 233.77 66.09 234.25 66.01 234.74 65.93 235.22 65.85 235.7 65.76 236.18 65.67 236.66 65.58 237.15 65.49 237.63 65.4 238.11 65.31 238.59 65.22 239.07 65.13 239.56 65.04 240.04 64.94 240.52 64.85 241 64.76 241.48 64.67 241.97 64.59 242.45 64.5 242.93 64.42 243.41 64.34 243.89 64.26 244.38 64.19 244.86 64.12 245.34 64.05 245.82 63.99 246.3 63.93 246.79 63.88 247.27 63.83 247.75 63.78 248.23 63.74 248.71 63.71 249.2 63.68 249.68 63.66 250.16 63.64 250.64 63.63 251.12 63.62 251.61 63.62 252.09 63.63 252.57 63.63 253.05 63.65 253.53 63.66 254.02 63.68 254.5 63.71 254.98 63.74 255.46 63.77 255.94 63.8 256.43 63.84 256.91 63.88 257.39 63.92 257.87 63.96 258.35 64.01 258.84 64.05 259.32 64.09 259.8 64.14 260.28 64.18 260.76 64.22 261.25 64.26 261.73 64.29 262.21 64.33 262.69 64.36 263.17 64.39 263.66 64.41 264.14 64.43 264.62 64.45 265.1 64.47 265.58 64.48 266.07 64.48 266.55 64.48 267.03 64.48 267.51 64.47 267.99 64.46 268.48 64.44 268.96 64.43 269.44 64.4 269.92 64.37 270.4 64.34 270.89 64.31 271.37 64.27 271.85 64.23 272.33 64.19 272.81 64.15 273.3 64.1 273.78 64.06 274.26 64.01 274.74 63.96 275.22 63.91 275.71 63.86 276.19 63.82 276.67 63.77 277.15 63.73 277.63 63.68 278.12 63.64 278.6 63.6 279.08 63.57 279.56 63.53 280.04 63.5 280.53 63.47 281.01 63.45 281.49 63.42 281.97 63.41 282.45 63.39 282.94 63.38 283.42 63.37 283.9 63.36 284.38 63.36 284.86 63.36 285.34 63.36 285.83 63.37 286.31 63.37 286.79 63.38 287.27 63.39 287.75 63.4 288.24 63.41 288.72 63.42 289.2 63.43 289.68 63.45 290.16 63.45 290.65 63.46 291.13 63.47 291.61 63.47 292.09 63.47 292.57 63.47 293.06 63.47 293.54 63.46 294.02 63.44 294.5 63.42 294.98 63.4 295.47 63.37 295.95 63.33 296.43 63.29 296.91 63.24 297.39 63.18 297.88 63.12 298.36 63.05 298.84 62.97 299.32 62.88 299.8 62.79 300.29 62.68 300.77 62.57 301.25 62.45 301.73 62.32 302.21 62.19 302.7 62.04 303.18 61.89 303.66 61.72 304.14 61.55 304.62 61.37 305.11 61.18 305.59 60.98 306.07 60.76 306.55 60.54 307.03 60.31 307.52 60.07 308 59.82 308.48 59.56 308.96 59.29 309.44 59.01 309.93 58.71 310.41 58.41 310.89 58.1 311.37 57.77 311.85 57.43 312.34 57.09 312.82 56.73 313.3 56.36 313.78 55.97 314.26 55.58 314.75 55.17 315.23 54.75 315.71 54.31 316.19 53.87 316.67 53.41 317.16 52.93 317.64 52.45 318.12 51.95 318.6 51.44 319.08 50.92 319.57 50.38 320.05 49.83 320.53 49.26 321.01 48.69 321.49 48.1 321.98 47.49 322.46 46.88 322.94 46.25 323.42 45.61 323.9 44.96 324.39 44.29 324.87 43.62 325.35 42.93 325.83 42.24 326.31 41.53 326.8 40.82 327.28 40.1 327.76 39.37 328.24 38.63 328.72 37.89 329.21 37.14 329.69 36.39 330.17 35.63 330.65 34.88 331.13 34.12 331.62 33.37 332.1 32.62 332.58 31.87 333.06 31.13 333.54 30.39 334.03 29.67 334.51 28.95 334.99 28.25 335.47 27.56 335.95 26.89 336.44 26.25 336.92 25.61 337.4 25.01 337.88 24.43 338.36 23.88 338.85 23.35 339.33 22.86 339.81 22.41 340.29 21.99 340.77 21.6 341.26 21.26 341.74 20.97 342.22 20.71 342.7 20.5 343.18 20.34 343.67 20.23 344.15 20.16 344.63 20.15 345.11 20.2 345.59 20.29 346.08 20.43 346.56 20.64 347.04 20.9 347.52 21.2 348 21.56 348.49 21.98 348.97 22.45 349.45 22.96 349.93 23.53 350.41 24.15 350.9 24.81 351.38 25.51 351.86 26.27 352.34 27.06 352.82 27.88 353.31 28.75 353.79 29.65 354.27 30.57 354.75 31.52 355.23 32.51 355.72 33.51 356.2 34.52 356.68 35.56 357.16 36.6 357.64 37.66 358.13 38.71 358.61 39.78 359.09 40.84 359.57 41.9 360.05 42.95 360.54 44 361.02 45.03 361.5 46.05 361.98 47.06 362.46 48.04 362.95 49.01 363.43 49.96 363.91 50.88 364.39 51.77 364.87 52.64 365.36 53.49 365.84 54.3 366.32 55.09 366.8 55.85 367.28 56.58 367.77 57.28 368.25 57.95 368.73 58.59 369.21 59.19 369.69 59.77 370.18 60.32 370.66 60.84 371.14 61.33 371.62 61.79 372.1 62.23 372.59 62.64 373.07 63.03 373.55 63.39 374.03 63.73 374.51 64.04 375 64.33 375.48 64.6 375.96 64.85 376.44 65.08 376.92 65.3 377.41 65.5 377.89 65.68 378.37 65.85 378.85 66 379.33 66.14 379.82 66.27 380.3 66.39 380.78 66.49 381.26 66.59 381.74 66.68 382.23 66.76 382.71 66.83 383.19 66.89 383.67 66.95 384.15 67 384.64 67.05 385.12 67.09 385.6 67.13 386.08 67.16 386.56 67.19 387.05 67.22 387.53 67.24 388.01 67.26 388.49 67.28 388.97 67.3 389.46 67.31 389.94 67.33 390.42 67.34 390.9 67.35 391.38 67.36 391.87 67.36 392.35 67.37 392.83 67.37 393.31 67.38 393.79 67.38 394.28 67.39 394.76 67.39 395.24 67.39 395.72 67.4 396.2 67.4 396.69 67.4 397.17 67.4 397.65 67.4 398.13 67.4 398.61 67.4 399.1 67.4 399.58 67.41 400.06 67.41 400.54 67.41 401.02 67.41 401.51 67.41 401.99 67.41 402.47 67.41 402.95 67.41 403.43 67.41 403.92 67.41 404.4 67.41 404.88 67.41 405.36 67.41 405.84 67.41 406.33 67.41 406.81 67.41 407.29 67.41 407.77 67.41 408.25 67.41 408.74 67.41 409.22 67.41 409.7 67.41 410.18 67.41 410.66 67.41 411.15 67.41 411.63 67.41 412.11 67.41 412.59 67.41 413.07 67.41 413.56 67.41 414.04 67.41 414.52 67.41 415 67.41 415.48 67.41 415.97 67.41 416.45 67.41 416.93 67.41 417.41 67.41 417.89 67.41 418.38 67.41 418.86 67.41 419.34 67.41 419.82 67.41 420.3 67.41 420.79 67.41 421.27 67.41 421.75 67.41 422.23 67.41 422.71 67.41 423.2 67.41 423.68 67.41 423.2 67.41 422.71 67.41 422.23 67.41 421.75 67.41 421.27 67.41 420.79 67.41 420.3 67.41 419.82 67.41 419.34 67.41 418.86 67.41 418.38 67.41 417.89 67.41 417.41 67.41 416.93 67.41 416.45 67.41 415.97 67.41 415.48 67.41 415 67.41 414.52 67.41 414.04 67.41 413.56 67.41 413.07 67.41 412.59 67.41 412.11 67.41 411.63 67.41 411.15 67.41 410.66 67.41 410.18 67.41 409.7 67.41 409.22 67.41 408.74 67.41 408.25 67.41 407.77 67.41 407.29 67.41 406.81 67.41 406.33 67.41 405.84 67.41 405.36 67.41 404.88 67.41 404.4 67.41 403.92 67.41 403.43 67.41 402.95 67.41 402.47 67.41 401.99 67.41 401.51 67.41 401.02 67.41 400.54 67.41 400.06 67.41 399.58 67.41 399.1 67.41 398.61 67.41 398.13 67.41 397.65 67.41 397.17 67.41 396.69 67.41 396.2 67.41 395.72 67.41 395.24 67.41 394.76 67.41 394.28 67.41 393.79 67.41 393.31 67.41 392.83 67.41 392.35 67.41 391.87 67.41 391.38 67.41 390.9 67.41 390.42 67.41 389.94 67.41 389.46 67.41 388.97 67.41 388.49 67.41 388.01 67.41 387.53 67.41 387.05 67.41 386.56 67.41 386.08 67.41 385.6 67.41 385.12 67.41 384.64 67.41 384.15 67.41 383.67 67.41 383.19 67.41 382.71 67.41 382.23 67.41 381.74 67.41 381.26 67.41 380.78 67.41 380.3 67.41 379.82 67.41 379.33 67.41 378.85 67.41 378.37 67.41 377.89 67.41 377.41 67.41 376.92 67.41 376.44 67.41 375.96 67.41 375.48 67.41 375 67.41 374.51 67.41 374.03 67.41 373.55 67.41 373.07 67.41 372.59 67.41 372.1 67.41 371.62 67.41 371.14 67.41 370.66 67.41 370.18 67.41 369.69 67.41 369.21 67.41 368.73 67.41 368.25 67.41 367.77 67.41 367.28 67.41 366.8 67.41 366.32 67.41 365.84 67.41 365.36 67.41 364.87 67.41 364.39 67.41 363.91 67.41 363.43 67.41 362.95 67.41 362.46 67.41 361.98 67.41 361.5 67.41 361.02 67.41 360.54 67.41 360.05 67.41 359.57 67.41 359.09 67.41 358.61 67.41 358.13 67.41 357.64 67.41 357.16 67.41 356.68 67.41 356.2 67.41 355.72 67.41 355.23 67.41 354.75 67.41 354.27 67.41 353.79 67.41 353.31 67.41 352.82 67.41 352.34 67.41 351.86 67.41 351.38 67.41 350.9 67.41 350.41 67.41 349.93 67.41 349.45 67.41 348.97 67.41 348.49 67.41 348 67.41 347.52 67.41 347.04 67.41 346.56 67.41 346.08 67.41 345.59 67.41 345.11 67.41 344.63 67.41 344.15 67.41 343.67 67.41 343.18 67.41 342.7 67.41 342.22 67.41 341.74 67.41 341.26 67.41 340.77 67.41 340.29 67.41 339.81 67.41 339.33 67.41 338.85 67.41 338.36 67.41 337.88 67.41 337.4 67.41 336.92 67.41 336.44 67.41 335.95 67.41 335.47 67.41 334.99 67.41 334.51 67.41 334.03 67.41 333.54 67.41 333.06 67.41 332.58 67.41 332.1 67.41 331.62 67.41 331.13 67.41 330.65 67.41 330.17 67.41 329.69 67.41 329.21 67.41 328.72 67.41 328.24 67.41 327.76 67.41 327.28 67.41 326.8 67.41 326.31 67.41 325.83 67.41 325.35 67.41 324.87 67.41 324.39 67.41 323.9 67.41 323.42 67.41 322.94 67.41 322.46 67.41 321.98 67.41 321.49 67.41 321.01 67.41 320.53 67.41 320.05 67.41 319.57 67.41 319.08 67.41 318.6 67.41 318.12 67.41 317.64 67.41 317.16 67.41 316.67 67.41 316.19 67.41 315.71 67.41 315.23 67.41 314.75 67.41 314.26 67.41 313.78 67.41 313.3 67.41 312.82 67.41 312.34 67.41 311.85 67.41 311.37 67.41 310.89 67.41 310.41 67.41 309.93 67.41 309.44 67.41 308.96 67.41 308.48 67.41 308 67.41 307.52 67.41 307.03 67.41 306.55 67.41 306.07 67.41 305.59 67.41 305.11 67.41 304.62 67.41 304.14 67.41 303.66 67.41 303.18 67.41 302.7 67.41 302.21 67.41 301.73 67.41 301.25 67.41 300.77 67.41 300.29 67.41 299.8 67.41 299.32 67.41 298.84 67.41 298.36 67.41 297.88 67.41 297.39 67.41 296.91 67.41 296.43 67.41 295.95 67.41 295.47 67.41 294.98 67.41 294.5 67.41 294.02 67.41 293.54 67.41 293.06 67.41 292.57 67.41 292.09 67.41 291.61 67.41 291.13 67.41 290.65 67.41 290.16 67.41 289.68 67.41 289.2 67.41 288.72 67.41 288.24 67.41 287.75 67.41 287.27 67.41 286.79 67.41 286.31 67.41 285.83 67.41 285.34 67.41 284.86 67.41 284.38 67.41 283.9 67.41 283.42 67.41 282.94 67.41 282.45 67.41 281.97 67.41 281.49 67.41 281.01 67.41 280.53 67.41 280.04 67.41 279.56 67.41 279.08 67.41 278.6 67.41 278.12 67.41 277.63 67.41 277.15 67.41 276.67 67.41 276.19 67.41 275.71 67.41 275.22 67.41 274.74 67.41 274.26 67.41 273.78 67.41 273.3 67.41 272.81 67.41 272.33 67.41 271.85 67.41 271.37 67.41 270.89 67.41 270.4 67.41 269.92 67.41 269.44 67.41 268.96 67.41 268.48 67.41 267.99 67.41 267.51 67.41 267.03 67.41 266.55 67.41 266.07 67.41 265.58 67.41 265.1 67.41 264.62 67.41 264.14 67.41 263.66 67.41 263.17 67.41 262.69 67.41 262.21 67.41 261.73 67.41 261.25 67.41 260.76 67.41 260.28 67.41 259.8 67.41 259.32 67.41 258.84 67.41 258.35 67.41 257.87 67.41 257.39 67.41 256.91 67.41 256.43 67.41 255.94 67.41 255.46 67.41 254.98 67.41 254.5 67.41 254.02 67.41 253.53 67.41 253.05 67.41 252.57 67.41 252.09 67.41 251.61 67.41 251.12 67.41 250.64 67.41 250.16 67.41 249.68 67.41 249.2 67.41 248.71 67.41 248.23 67.41 247.75 67.41 247.27 67.41 246.79 67.41 246.3 67.41 245.82 67.41 245.34 67.41 244.86 67.41 244.38 67.41 243.89 67.41 243.41 67.41 242.93 67.41 242.45 67.41 241.97 67.41 241.48 67.41 241 67.41 240.52 67.41 240.04 67.41 239.56 67.41 239.07 67.41 238.59 67.41 238.11 67.41 237.63 67.41 237.15 67.41 236.66 67.41 236.18 67.41 235.7 67.41 235.22 67.41 234.74 67.41 234.25 67.41 233.77 67.41 233.29 67.41 232.81 67.41 232.33 67.41 231.84 67.41 231.36 67.41 230.88 67.41 230.4 67.41 229.92 67.41 229.43 67.41 228.95 67.41 228.47 67.41 227.99 67.41 227.51 67.41 227.02 67.41 226.54 67.41 226.06 67.41 225.58 67.41 225.1 67.41 224.61 67.41 224.13 67.41 223.65 67.41 223.17 67.41 222.69 67.41 222.2 67.41 221.72 67.41 221.24 67.41 220.76 67.41 220.28 67.41 219.79 67.41 219.31 67.41 218.83 67.41 218.35 67.41 217.87 67.41 217.38 67.41 216.9 67.41 216.42 67.41 215.94 67.41 215.46 67.41 214.97 67.41 214.49 67.41 214.01 67.41 213.53 67.41 213.05 67.41 212.56 67.41 212.08 67.41 211.6 67.41 211.12 67.41 210.64 67.41 210.15 67.41 209.67 67.41 209.19 67.41 208.71 67.41 208.23 67.41 207.74 67.41 207.26 67.41 206.78 67.41 206.3 67.41 205.82 67.41 205.33 67.41 204.85 67.41 204.37 67.41 203.89 67.41 203.41 67.41 202.92 67.41 202.44 67.41 201.96 67.41 201.48 67.41 201 67.41 200.51 67.41 200.03 67.41 199.55 67.41 199.07 67.41 198.59 67.41 198.1 67.41 197.62 67.41 197.14 67.41 196.66 67.41 196.18 67.41 195.69 67.41 195.21 67.41 194.73 67.41 194.25 67.41 193.77 67.41 193.28 67.41 192.8 67.41 192.32 67.41 191.84 67.41 191.36 67.41 190.87 67.41 190.39 67.41 189.91 67.41 189.43 67.41 188.95 67.41 188.46 67.41 187.98 67.41 187.5 67.41 187.02 67.41 186.54 67.41 186.05 67.41 185.57 67.41 185.09 67.41 184.61 67.41 184.13 67.41 183.64 67.41 183.16 67.41 182.68 67.41 182.2 67.41 181.72 67.41 181.23 67.41 180.75 67.41 180.27 67.41 179.79 67.41 179.31 67.41 178.82 67.41 178.34 67.41 177.86 67.41 177.38 67.41"/>
      <polygon class="cls-9" points="177.38 93.62 177.86 93.61 178.34 93.6 178.82 93.6 179.31 93.59 179.79 93.58 180.27 93.57 180.75 93.56 181.23 93.54 181.72 93.53 182.2 93.51 182.68 93.5 183.16 93.48 183.64 93.46 184.13 93.44 184.61 93.41 185.09 93.39 185.57 93.36 186.05 93.33 186.54 93.29 187.02 93.26 187.5 93.22 187.98 93.18 188.46 93.13 188.95 93.08 189.43 93.03 189.91 92.98 190.39 92.92 190.87 92.86 191.36 92.79 191.84 92.72 192.32 92.65 192.8 92.57 193.28 92.48 193.77 92.4 194.25 92.3 194.73 92.21 195.21 92.11 195.69 92 196.18 91.89 196.66 91.78 197.14 91.66 197.62 91.54 198.1 91.41 198.59 91.28 199.07 91.15 199.55 91.01 200.03 90.86 200.51 90.72 201 90.57 201.48 90.42 201.96 90.27 202.44 90.11 202.92 89.95 203.41 89.8 203.89 89.64 204.37 89.48 204.85 89.32 205.33 89.16 205.82 89 206.3 88.84 206.78 88.68 207.26 88.53 207.74 88.38 208.23 88.23 208.71 88.08 209.19 87.94 209.67 87.81 210.15 87.67 210.64 87.55 211.12 87.43 211.6 87.31 212.08 87.21 212.56 87.11 213.05 87.01 213.53 86.93 214.01 86.85 214.49 86.78 214.97 86.71 215.46 86.66 215.94 86.62 216.42 86.58 216.9 86.55 217.38 86.54 217.87 86.52 218.35 86.52 218.83 86.53 219.31 86.54 219.79 86.57 220.28 86.6 220.76 86.64 221.24 86.68 221.72 86.73 222.2 86.79 222.69 86.86 223.17 86.93 223.65 87 224.13 87.08 224.61 87.16 225.1 87.25 225.58 87.34 226.06 87.43 226.54 87.52 227.02 87.61 227.51 87.7 227.99 87.79 228.47 87.88 228.95 87.97 229.43 88.05 229.92 88.13 230.4 88.21 230.88 88.28 231.36 88.35 231.84 88.41 232.33 88.47 232.81 88.51 233.29 88.55 233.77 88.59 234.25 88.61 234.74 88.63 235.22 88.63 235.7 88.63 236.18 88.62 236.66 88.6 237.15 88.57 237.63 88.53 238.11 88.48 238.59 88.42 239.07 88.36 239.56 88.28 240.04 88.19 240.52 88.1 241 88 241.48 87.88 241.97 87.76 242.45 87.64 242.93 87.51 243.41 87.37 243.89 87.22 244.38 87.07 244.86 86.92 245.34 86.76 245.82 86.6 246.3 86.43 246.79 86.27 247.27 86.1 247.75 85.93 248.23 85.77 248.71 85.6 249.2 85.44 249.68 85.28 250.16 85.12 250.64 84.97 251.12 84.82 251.61 84.67 252.09 84.53 252.57 84.4 253.05 84.27 253.53 84.15 254.02 84.04 254.5 83.94 254.98 83.84 255.46 83.76 255.94 83.68 256.43 83.61 256.91 83.55 257.39 83.51 257.87 83.47 258.35 83.43 258.84 83.41 259.32 83.4 259.8 83.4 260.28 83.4 260.76 83.42 261.25 83.44 261.73 83.47 262.21 83.51 262.69 83.55 263.17 83.6 263.66 83.66 264.14 83.72 264.62 83.78 265.1 83.85 265.58 83.91 266.07 83.98 266.55 84.05 267.03 84.12 267.51 84.18 267.99 84.25 268.48 84.3 268.96 84.36 269.44 84.4 269.92 84.44 270.4 84.47 270.89 84.49 271.37 84.5 271.85 84.5 272.33 84.48 272.81 84.45 273.3 84.4 273.78 84.34 274.26 84.27 274.74 84.17 275.22 84.05 275.71 83.92 276.19 83.77 276.67 83.59 277.15 83.39 277.63 83.18 278.12 82.94 278.6 82.68 279.08 82.4 279.56 82.1 280.04 81.77 280.53 81.42 281.01 81.06 281.49 80.68 281.97 80.27 282.45 79.85 282.94 79.42 283.42 78.96 283.9 78.5 284.38 78.02 284.86 77.53 285.34 77.02 285.83 76.51 286.31 76 286.79 75.47 287.27 74.95 287.75 74.43 288.24 73.9 288.72 73.38 289.2 72.87 289.68 72.36 290.16 71.86 290.65 71.37 291.13 70.9 291.61 70.44 292.09 70 292.57 69.58 293.06 69.18 293.54 68.8 294.02 68.44 294.5 68.12 294.98 67.81 295.47 67.53 295.95 67.29 296.43 67.06 296.91 66.87 297.39 66.71 297.88 66.58 298.36 66.48 298.84 66.41 299.32 66.37 299.8 66.36 300.29 66.37 300.77 66.42 301.25 66.49 301.73 66.59 302.21 66.7 302.7 66.85 303.18 67.01 303.66 67.19 304.14 67.39 304.62 67.61 305.11 67.84 305.59 68.09 306.07 68.34 306.55 68.6 307.03 68.87 307.52 69.14 308 69.41 308.48 69.69 308.96 69.96 309.44 70.23 309.93 70.49 310.41 70.75 310.89 70.99 311.37 71.23 311.85 71.46 312.34 71.67 312.82 71.87 313.3 72.06 313.78 72.23 314.26 72.38 314.75 72.52 315.23 72.64 315.71 72.75 316.19 72.84 316.67 72.91 317.16 72.97 317.64 73.01 318.12 73.04 318.6 73.05 319.08 73.05 319.57 73.04 320.05 73.02 320.53 72.99 321.01 72.95 321.49 72.9 321.98 72.84 322.46 72.78 322.94 72.72 323.42 72.66 323.9 72.6 324.39 72.54 324.87 72.48 325.35 72.42 325.83 72.38 326.31 72.34 326.8 72.31 327.28 72.29 327.76 72.28 328.24 72.29 328.72 72.31 329.21 72.35 329.69 72.4 330.17 72.46 330.65 72.55 331.13 72.65 331.62 72.78 332.1 72.92 332.58 73.08 333.06 73.26 333.54 73.46 334.03 73.68 334.51 73.92 334.99 74.18 335.47 74.45 335.95 74.75 336.44 75.06 336.92 75.39 337.4 75.74 337.88 76.1 338.36 76.47 338.85 76.86 339.33 77.26 339.81 77.67 340.29 78.09 340.77 78.52 341.26 78.96 341.74 79.4 342.22 79.85 342.7 80.3 343.18 80.76 343.67 81.22 344.15 81.67 344.63 82.13 345.11 82.58 345.59 83.03 346.08 83.48 346.56 83.92 347.04 84.36 347.52 84.79 348 85.21 348.49 85.62 348.97 86.02 349.45 86.42 349.93 86.8 350.41 87.17 350.9 87.54 351.38 87.89 351.86 88.22 352.34 88.55 352.82 88.86 353.31 89.16 353.79 89.45 354.27 89.72 354.75 89.99 355.23 90.24 355.72 90.47 356.2 90.7 356.68 90.92 357.16 91.12 357.64 91.31 358.13 91.49 358.61 91.66 359.09 91.82 359.57 91.96 360.05 92.11 360.54 92.23 361.02 92.35 361.5 92.47 361.98 92.57 362.46 92.67 362.95 92.76 363.43 92.84 363.91 92.92 364.39 92.99 364.87 93.05 365.36 93.11 365.84 93.17 366.32 93.22 366.8 93.26 367.28 93.3 367.77 93.34 368.25 93.37 368.73 93.41 369.21 93.43 369.69 93.46 370.18 93.48 370.66 93.5 371.14 93.52 371.62 93.54 372.1 93.55 372.59 93.56 373.07 93.58 373.55 93.59 374.03 93.6 374.51 93.6 375 93.61 375.48 93.62 375.96 93.62 376.44 93.63 376.92 93.63 377.41 93.64 377.89 93.64 378.37 93.64 378.85 93.65 379.33 93.65 379.82 93.65 380.3 93.65 380.78 93.65 381.26 93.65 381.74 93.65 382.23 93.66 382.71 93.66 383.19 93.66 383.67 93.66 384.15 93.66 384.64 93.66 385.12 93.66 385.6 93.66 386.08 93.66 386.56 93.66 387.05 93.66 387.53 93.66 388.01 93.66 388.49 93.66 388.97 93.66 389.46 93.66 389.94 93.66 390.42 93.66 390.9 93.66 391.38 93.66 391.87 93.66 392.35 93.66 392.83 93.66 393.31 93.66 393.79 93.66 394.28 93.66 394.76 93.66 395.24 93.66 395.72 93.66 396.2 93.66 396.69 93.66 397.17 93.66 397.65 93.66 398.13 93.66 398.61 93.66 399.1 93.66 399.58 93.66 400.06 93.66 400.54 93.66 401.02 93.66 401.51 93.66 401.99 93.66 402.47 93.66 402.95 93.66 403.43 93.66 403.92 93.66 404.4 93.66 404.88 93.66 405.36 93.66 405.84 93.66 406.33 93.66 406.81 93.66 407.29 93.66 407.77 93.66 408.25 93.66 408.74 93.66 409.22 93.66 409.7 93.66 410.18 93.66 410.66 93.66 411.15 93.66 411.63 93.66 412.11 93.66 412.59 93.66 413.07 93.66 413.56 93.66 414.04 93.66 414.52 93.66 415 93.66 415.48 93.66 415.97 93.66 416.45 93.66 416.93 93.66 417.41 93.66 417.89 93.66 418.38 93.66 418.86 93.66 419.34 93.66 419.82 93.66 420.3 93.66 420.79 93.66 421.27 93.66 421.75 93.66 422.23 93.66 422.71 93.66 423.2 93.66 423.68 93.66 423.2 93.66 422.71 93.66 422.23 93.66 421.75 93.66 421.27 93.66 420.79 93.66 420.3 93.66 419.82 93.66 419.34 93.66 418.86 93.66 418.38 93.66 417.89 93.66 417.41 93.66 416.93 93.66 416.45 93.66 415.97 93.66 415.48 93.66 415 93.66 414.52 93.66 414.04 93.66 413.56 93.66 413.07 93.66 412.59 93.66 412.11 93.66 411.63 93.66 411.15 93.66 410.66 93.66 410.18 93.66 409.7 93.66 409.22 93.66 408.74 93.66 408.25 93.66 407.77 93.66 407.29 93.66 406.81 93.66 406.33 93.66 405.84 93.66 405.36 93.66 404.88 93.66 404.4 93.66 403.92 93.66 403.43 93.66 402.95 93.66 402.47 93.66 401.99 93.66 401.51 93.66 401.02 93.66 400.54 93.66 400.06 93.66 399.58 93.66 399.1 93.66 398.61 93.66 398.13 93.66 397.65 93.66 397.17 93.66 396.69 93.66 396.2 93.66 395.72 93.66 395.24 93.66 394.76 93.66 394.28 93.66 393.79 93.66 393.31 93.66 392.83 93.66 392.35 93.66 391.87 93.66 391.38 93.66 390.9 93.66 390.42 93.66 389.94 93.66 389.46 93.66 388.97 93.66 388.49 93.66 388.01 93.66 387.53 93.66 387.05 93.66 386.56 93.66 386.08 93.66 385.6 93.66 385.12 93.66 384.64 93.66 384.15 93.66 383.67 93.66 383.19 93.66 382.71 93.66 382.23 93.66 381.74 93.66 381.26 93.66 380.78 93.66 380.3 93.66 379.82 93.66 379.33 93.66 378.85 93.66 378.37 93.66 377.89 93.66 377.41 93.66 376.92 93.66 376.44 93.66 375.96 93.66 375.48 93.66 375 93.66 374.51 93.66 374.03 93.66 373.55 93.66 373.07 93.66 372.59 93.66 372.1 93.66 371.62 93.66 371.14 93.66 370.66 93.66 370.18 93.66 369.69 93.66 369.21 93.66 368.73 93.66 368.25 93.66 367.77 93.66 367.28 93.66 366.8 93.66 366.32 93.66 365.84 93.66 365.36 93.66 364.87 93.66 364.39 93.66 363.91 93.66 363.43 93.66 362.95 93.66 362.46 93.66 361.98 93.66 361.5 93.66 361.02 93.66 360.54 93.66 360.05 93.66 359.57 93.66 359.09 93.66 358.61 93.66 358.13 93.66 357.64 93.66 357.16 93.66 356.68 93.66 356.2 93.66 355.72 93.66 355.23 93.66 354.75 93.66 354.27 93.66 353.79 93.66 353.31 93.66 352.82 93.66 352.34 93.66 351.86 93.66 351.38 93.66 350.9 93.66 350.41 93.66 349.93 93.66 349.45 93.66 348.97 93.66 348.49 93.66 348 93.66 347.52 93.66 347.04 93.66 346.56 93.66 346.08 93.66 345.59 93.66 345.11 93.66 344.63 93.66 344.15 93.66 343.67 93.66 343.18 93.66 342.7 93.66 342.22 93.66 341.74 93.66 341.26 93.66 340.77 93.66 340.29 93.66 339.81 93.66 339.33 93.66 338.85 93.66 338.36 93.66 337.88 93.66 337.4 93.66 336.92 93.66 336.44 93.66 335.95 93.66 335.47 93.66 334.99 93.66 334.51 93.66 334.03 93.66 333.54 93.66 333.06 93.66 332.58 93.66 332.1 93.66 331.62 93.66 331.13 93.66 330.65 93.66 330.17 93.66 329.69 93.66 329.21 93.66 328.72 93.66 328.24 93.66 327.76 93.66 327.28 93.66 326.8 93.66 326.31 93.66 325.83 93.66 325.35 93.66 324.87 93.66 324.39 93.66 323.9 93.66 323.42 93.66 322.94 93.66 322.46 93.66 321.98 93.66 321.49 93.66 321.01 93.66 320.53 93.66 320.05 93.66 319.57 93.66 319.08 93.66 318.6 93.66 318.12 93.66 317.64 93.66 317.16 93.66 316.67 93.66 316.19 93.66 315.71 93.66 315.23 93.66 314.75 93.66 314.26 93.66 313.78 93.66 313.3 93.66 312.82 93.66 312.34 93.66 311.85 93.66 311.37 93.66 310.89 93.66 310.41 93.66 309.93 93.66 309.44 93.66 308.96 93.66 308.48 93.66 308 93.66 307.52 93.66 307.03 93.66 306.55 93.66 306.07 93.66 305.59 93.66 305.11 93.66 304.62 93.66 304.14 93.66 303.66 93.66 303.18 93.66 302.7 93.66 302.21 93.66 301.73 93.66 301.25 93.66 300.77 93.66 300.29 93.66 299.8 93.66 299.32 93.66 298.84 93.66 298.36 93.66 297.88 93.66 297.39 93.66 296.91 93.66 296.43 93.66 295.95 93.66 295.47 93.66 294.98 93.66 294.5 93.66 294.02 93.66 293.54 93.66 293.06 93.66 292.57 93.66 292.09 93.66 291.61 93.66 291.13 93.66 290.65 93.66 290.16 93.66 289.68 93.66 289.2 93.66 288.72 93.66 288.24 93.66 287.75 93.66 287.27 93.66 286.79 93.66 286.31 93.66 285.83 93.66 285.34 93.66 284.86 93.66 284.38 93.66 283.9 93.66 283.42 93.66 282.94 93.66 282.45 93.66 281.97 93.66 281.49 93.66 281.01 93.66 280.53 93.66 280.04 93.66 279.56 93.66 279.08 93.66 278.6 93.66 278.12 93.66 277.63 93.66 277.15 93.66 276.67 93.66 276.19 93.66 275.71 93.66 275.22 93.66 274.74 93.66 274.26 93.66 273.78 93.66 273.3 93.66 272.81 93.66 272.33 93.66 271.85 93.66 271.37 93.66 270.89 93.66 270.4 93.66 269.92 93.66 269.44 93.66 268.96 93.66 268.48 93.66 267.99 93.66 267.51 93.66 267.03 93.66 266.55 93.66 266.07 93.66 265.58 93.66 265.1 93.66 264.62 93.66 264.14 93.66 263.66 93.66 263.17 93.66 262.69 93.66 262.21 93.66 261.73 93.66 261.25 93.66 260.76 93.66 260.28 93.66 259.8 93.66 259.32 93.66 258.84 93.66 258.35 93.66 257.87 93.66 257.39 93.66 256.91 93.66 256.43 93.66 255.94 93.66 255.46 93.66 254.98 93.66 254.5 93.66 254.02 93.66 253.53 93.66 253.05 93.66 252.57 93.66 252.09 93.66 251.61 93.66 251.12 93.66 250.64 93.66 250.16 93.66 249.68 93.66 249.2 93.66 248.71 93.66 248.23 93.66 247.75 93.66 247.27 93.66 246.79 93.66 246.3 93.66 245.82 93.66 245.34 93.66 244.86 93.66 244.38 93.66 243.89 93.66 243.41 93.66 242.93 93.66 242.45 93.66 241.97 93.66 241.48 93.66 241 93.66 240.52 93.66 240.04 93.66 239.56 93.66 239.07 93.66 238.59 93.66 238.11 93.66 237.63 93.66 237.15 93.66 236.66 93.66 236.18 93.66 235.7 93.66 235.22 93.66 234.74 93.66 234.25 93.66 233.77 93.66 233.29 93.66 232.81 93.66 232.33 93.66 231.84 93.66 231.36 93.66 230.88 93.66 230.4 93.66 229.92 93.66 229.43 93.66 228.95 93.66 228.47 93.66 227.99 93.66 227.51 93.66 227.02 93.66 226.54 93.66 226.06 93.66 225.58 93.66 225.1 93.66 224.61 93.66 224.13 93.66 223.65 93.66 223.17 93.66 222.69 93.66 222.2 93.66 221.72 93.66 221.24 93.66 220.76 93.66 220.28 93.66 219.79 93.66 219.31 93.66 218.83 93.66 218.35 93.66 217.87 93.66 217.38 93.66 216.9 93.66 216.42 93.66 215.94 93.66 215.46 93.66 214.97 93.66 214.49 93.66 214.01 93.66 213.53 93.66 213.05 93.66 212.56 93.66 212.08 93.66 211.6 93.66 211.12 93.66 210.64 93.66 210.15 93.66 209.67 93.66 209.19 93.66 208.71 93.66 208.23 93.66 207.74 93.66 207.26 93.66 206.78 93.66 206.3 93.66 205.82 93.66 205.33 93.66 204.85 93.66 204.37 93.66 203.89 93.66 203.41 93.66 202.92 93.66 202.44 93.66 201.96 93.66 201.48 93.66 201 93.66 200.51 93.66 200.03 93.66 199.55 93.66 199.07 93.66 198.59 93.66 198.1 93.66 197.62 93.66 197.14 93.66 196.66 93.66 196.18 93.66 195.69 93.66 195.21 93.66 194.73 93.66 194.25 93.66 193.77 93.66 193.28 93.66 192.8 93.66 192.32 93.66 191.84 93.66 191.36 93.66 190.87 93.66 190.39 93.66 189.91 93.66 189.43 93.66 188.95 93.66 188.46 93.66 187.98 93.66 187.5 93.66 187.02 93.66 186.54 93.66 186.05 93.66 185.57 93.66 185.09 93.66 184.61 93.66 184.13 93.66 183.64 93.66 183.16 93.66 182.68 93.66 182.2 93.66 181.72 93.66 181.23 93.66 180.75 93.66 180.27 93.66 179.79 93.66 179.31 93.66 178.82 93.66 178.34 93.66 177.86 93.66 177.38 93.66 177.38 93.62"/>
      <polygon class="cls-10" points="177.38 119.91 177.86 119.91 178.34 119.91 178.82 119.91 179.31 119.91 179.79 119.91 180.27 119.91 180.75 119.91 181.23 119.91 181.72 119.91 182.2 119.91 182.68 119.91 183.16 119.91 183.64 119.91 184.13 119.91 184.61 119.91 185.09 119.91 185.57 119.91 186.05 119.91 186.54 119.91 187.02 119.91 187.5 119.91 187.98 119.91 188.46 119.91 188.95 119.91 189.43 119.91 189.91 119.91 190.39 119.91 190.87 119.91 191.36 119.91 191.84 119.91 192.32 119.91 192.8 119.91 193.28 119.91 193.77 119.91 194.25 119.91 194.73 119.91 195.21 119.91 195.69 119.91 196.18 119.91 196.66 119.91 197.14 119.91 197.62 119.91 198.1 119.91 198.59 119.91 199.07 119.91 199.55 119.91 200.03 119.91 200.51 119.91 201 119.91 201.48 119.91 201.96 119.91 202.44 119.91 202.92 119.91 203.41 119.91 203.89 119.91 204.37 119.91 204.85 119.91 205.33 119.91 205.82 119.91 206.3 119.91 206.78 119.91 207.26 119.91 207.74 119.91 208.23 119.91 208.71 119.91 209.19 119.91 209.67 119.91 210.15 119.9 210.64 119.9 211.12 119.9 211.6 119.9 212.08 119.9 212.56 119.89 213.05 119.89 213.53 119.89 214.01 119.88 214.49 119.88 214.97 119.88 215.46 119.87 215.94 119.86 216.42 119.86 216.9 119.85 217.38 119.84 217.87 119.83 218.35 119.82 218.83 119.81 219.31 119.8 219.79 119.79 220.28 119.77 220.76 119.75 221.24 119.74 221.72 119.72 222.2 119.7 222.69 119.67 223.17 119.65 223.65 119.62 224.13 119.59 224.61 119.55 225.1 119.52 225.58 119.48 226.06 119.44 226.54 119.4 227.02 119.35 227.51 119.3 227.99 119.24 228.47 119.18 228.95 119.12 229.43 119.06 229.92 118.99 230.4 118.91 230.88 118.83 231.36 118.75 231.84 118.66 232.33 118.57 232.81 118.48 233.29 118.37 233.77 118.27 234.25 118.16 234.74 118.04 235.22 117.93 235.7 117.8 236.18 117.67 236.66 117.54 237.15 117.41 237.63 117.27 238.11 117.12 238.59 116.98 239.07 116.83 239.56 116.67 240.04 116.51 240.52 116.36 241 116.2 241.48 116.03 241.97 115.87 242.45 115.7 242.93 115.54 243.41 115.37 243.89 115.21 244.38 115.04 244.86 114.88 245.34 114.71 245.82 114.55 246.3 114.39 246.79 114.24 247.27 114.08 247.75 113.93 248.23 113.79 248.71 113.65 249.2 113.51 249.68 113.38 250.16 113.25 250.64 113.13 251.12 113.01 251.61 112.9 252.09 112.8 252.57 112.7 253.05 112.61 253.53 112.53 254.02 112.45 254.5 112.38 254.98 112.32 255.46 112.26 255.94 112.21 256.43 112.17 256.91 112.13 257.39 112.1 257.87 112.07 258.35 112.05 258.84 112.04 259.32 112.03 259.8 112.02 260.28 112.02 260.76 112.03 261.25 112.03 261.73 112.05 262.21 112.06 262.69 112.08 263.17 112.1 263.66 112.12 264.14 112.14 264.62 112.16 265.1 112.18 265.58 112.21 266.07 112.23 266.55 112.25 267.03 112.27 267.51 112.29 267.99 112.3 268.48 112.31 268.96 112.32 269.44 112.33 269.92 112.33 270.4 112.32 270.89 112.31 271.37 112.29 271.85 112.27 272.33 112.24 272.81 112.2 273.3 112.16 273.78 112.1 274.26 112.04 274.74 111.96 275.22 111.88 275.71 111.79 276.19 111.68 276.67 111.56 277.15 111.43 277.63 111.29 278.12 111.13 278.6 110.96 279.08 110.78 279.56 110.58 280.04 110.37 280.53 110.14 281.01 109.9 281.49 109.64 281.97 109.36 282.45 109.07 282.94 108.77 283.42 108.44 283.9 108.1 284.38 107.75 284.86 107.38 285.34 106.99 285.83 106.59 286.31 106.18 286.79 105.75 287.27 105.3 287.75 104.84 288.24 104.37 288.72 103.89 289.2 103.39 289.68 102.89 290.16 102.38 290.65 101.85 291.13 101.32 291.61 100.79 292.09 100.24 292.57 99.7 293.06 99.15 293.54 98.59 294.02 98.04 294.5 97.49 294.98 96.94 295.47 96.39 295.95 95.84 296.43 95.3 296.91 94.77 297.39 94.24 297.88 93.73 298.36 93.22 298.84 92.72 299.32 92.23 299.8 91.75 300.29 91.29 300.77 90.84 301.25 90.4 301.73 89.98 302.21 89.57 302.7 89.18 303.18 88.8 303.66 88.44 304.14 88.1 304.62 87.77 305.11 87.46 305.59 87.16 306.07 86.88 306.55 86.62 307.03 86.38 307.52 86.14 308 85.93 308.48 85.73 308.96 85.55 309.44 85.38 309.93 85.24 310.41 85.1 310.89 84.98 311.37 84.87 311.85 84.78 312.34 84.71 312.82 84.64 313.3 84.6 313.78 84.57 314.26 84.55 314.75 84.54 315.23 84.55 315.71 84.57 316.19 84.61 316.67 84.66 317.16 84.73 317.64 84.81 318.12 84.9 318.6 85.01 319.08 85.13 319.57 85.27 320.05 85.42 320.53 85.58 321.01 85.76 321.49 85.96 321.98 86.17 322.46 86.39 322.94 86.63 323.42 86.89 323.9 87.16 324.39 87.44 324.87 87.74 325.35 88.05 325.83 88.38 326.31 88.72 326.8 89.08 327.28 89.45 327.76 89.83 328.24 90.23 328.72 90.64 329.21 91.06 329.69 91.49 330.17 91.94 330.65 92.4 331.13 92.86 331.62 93.34 332.1 93.83 332.58 94.32 333.06 94.83 333.54 95.34 334.03 95.86 334.51 96.39 334.99 96.92 335.47 97.46 335.95 98 336.44 98.54 336.92 99.09 337.4 99.64 337.88 100.2 338.36 100.75 338.85 101.3 339.33 101.86 339.81 102.41 340.29 102.96 340.77 103.51 341.26 104.05 341.74 104.59 342.22 105.13 342.7 105.66 343.18 106.19 343.67 106.71 344.15 107.22 344.63 107.72 345.11 108.22 345.59 108.71 346.08 109.19 346.56 109.66 347.04 110.11 347.52 110.57 348 111 348.49 111.43 348.97 111.85 349.45 112.25 349.93 112.64 350.41 113.02 350.9 113.39 351.38 113.75 351.86 114.09 352.34 114.43 352.82 114.75 353.31 115.05 353.79 115.35 354.27 115.63 354.75 115.9 355.23 116.16 355.72 116.4 356.2 116.64 356.68 116.86 357.16 117.07 357.64 117.27 358.13 117.46 358.61 117.64 359.09 117.81 359.57 117.97 360.05 118.12 360.54 118.26 361.02 118.39 361.5 118.52 361.98 118.63 362.46 118.74 362.95 118.84 363.43 118.93 363.91 119.02 364.39 119.1 364.87 119.17 365.36 119.24 365.84 119.3 366.32 119.36 366.8 119.41 367.28 119.46 367.77 119.51 368.25 119.55 368.73 119.59 369.21 119.62 369.69 119.65 370.18 119.68 370.66 119.7 371.14 119.73 371.62 119.75 372.1 119.77 372.59 119.78 373.07 119.8 373.55 119.81 374.03 119.82 374.51 119.83 375 119.84 375.48 119.85 375.96 119.86 376.44 119.87 376.92 119.87 377.41 119.88 377.89 119.88 378.37 119.89 378.85 119.89 379.33 119.89 379.82 119.9 380.3 119.9 380.78 119.9 381.26 119.9 381.74 119.9 382.23 119.91 382.71 119.91 383.19 119.91 383.67 119.91 384.15 119.91 384.64 119.91 385.12 119.91 385.6 119.91 386.08 119.91 386.56 119.91 387.05 119.91 387.53 119.91 388.01 119.91 388.49 119.91 388.97 119.91 389.46 119.91 389.94 119.91 390.42 119.91 390.9 119.91 391.38 119.91 391.87 119.91 392.35 119.91 392.83 119.91 393.31 119.91 393.79 119.91 394.28 119.91 394.76 119.91 395.24 119.91 395.72 119.91 396.2 119.91 396.69 119.91 397.17 119.91 397.65 119.91 398.13 119.91 398.61 119.91 399.1 119.91 399.58 119.91 400.06 119.91 400.54 119.91 401.02 119.91 401.51 119.91 401.99 119.91 402.47 119.91 402.95 119.91 403.43 119.91 403.92 119.91 404.4 119.91 404.88 119.91 405.36 119.91 405.84 119.91 406.33 119.91 406.81 119.91 407.29 119.91 407.77 119.91 408.25 119.91 408.74 119.91 409.22 119.91 409.7 119.91 410.18 119.91 410.66 119.91 411.15 119.91 411.63 119.91 412.11 119.91 412.59 119.91 413.07 119.91 413.56 119.91 414.04 119.91 414.52 119.91 415 119.91 415.48 119.91 415.97 119.91 416.45 119.91 416.93 119.91 417.41 119.91 417.89 119.91 418.38 119.91 418.86 119.91 419.34 119.91 419.82 119.91 420.3 119.91 420.79 119.91 421.27 119.91 421.75 119.91 422.23 119.91 422.71 119.91 423.2 119.91 423.68 119.91 423.2 119.91 422.71 119.91 422.23 119.91 421.75 119.91 421.27 119.91 420.79 119.91 420.3 119.91 419.82 119.91 419.34 119.91 418.86 119.91 418.38 119.91 417.89 119.91 417.41 119.91 416.93 119.91 416.45 119.91 415.97 119.91 415.48 119.91 415 119.91 414.52 119.91 414.04 119.91 413.56 119.91 413.07 119.91 412.59 119.91 412.11 119.91 411.63 119.91 411.15 119.91 410.66 119.91 410.18 119.91 409.7 119.91 409.22 119.91 408.74 119.91 408.25 119.91 407.77 119.91 407.29 119.91 406.81 119.91 406.33 119.91 405.84 119.91 405.36 119.91 404.88 119.91 404.4 119.91 403.92 119.91 403.43 119.91 402.95 119.91 402.47 119.91 401.99 119.91 401.51 119.91 401.02 119.91 400.54 119.91 400.06 119.91 399.58 119.91 399.1 119.91 398.61 119.91 398.13 119.91 397.65 119.91 397.17 119.91 396.69 119.91 396.2 119.91 395.72 119.91 395.24 119.91 394.76 119.91 394.28 119.91 393.79 119.91 393.31 119.91 392.83 119.91 392.35 119.91 391.87 119.91 391.38 119.91 390.9 119.91 390.42 119.91 389.94 119.91 389.46 119.91 388.97 119.91 388.49 119.91 388.01 119.91 387.53 119.91 387.05 119.91 386.56 119.91 386.08 119.91 385.6 119.91 385.12 119.91 384.64 119.91 384.15 119.91 383.67 119.91 383.19 119.91 382.71 119.91 382.23 119.91 381.74 119.91 381.26 119.91 380.78 119.91 380.3 119.91 379.82 119.91 379.33 119.91 378.85 119.91 378.37 119.91 377.89 119.91 377.41 119.91 376.92 119.91 376.44 119.91 375.96 119.91 375.48 119.91 375 119.91 374.51 119.91 374.03 119.91 373.55 119.91 373.07 119.91 372.59 119.91 372.1 119.91 371.62 119.91 371.14 119.91 370.66 119.91 370.18 119.91 369.69 119.91 369.21 119.91 368.73 119.91 368.25 119.91 367.77 119.91 367.28 119.91 366.8 119.91 366.32 119.91 365.84 119.91 365.36 119.91 364.87 119.91 364.39 119.91 363.91 119.91 363.43 119.91 362.95 119.91 362.46 119.91 361.98 119.91 361.5 119.91 361.02 119.91 360.54 119.91 360.05 119.91 359.57 119.91 359.09 119.91 358.61 119.91 358.13 119.91 357.64 119.91 357.16 119.91 356.68 119.91 356.2 119.91 355.72 119.91 355.23 119.91 354.75 119.91 354.27 119.91 353.79 119.91 353.31 119.91 352.82 119.91 352.34 119.91 351.86 119.91 351.38 119.91 350.9 119.91 350.41 119.91 349.93 119.91 349.45 119.91 348.97 119.91 348.49 119.91 348 119.91 347.52 119.91 347.04 119.91 346.56 119.91 346.08 119.91 345.59 119.91 345.11 119.91 344.63 119.91 344.15 119.91 343.67 119.91 343.18 119.91 342.7 119.91 342.22 119.91 341.74 119.91 341.26 119.91 340.77 119.91 340.29 119.91 339.81 119.91 339.33 119.91 338.85 119.91 338.36 119.91 337.88 119.91 337.4 119.91 336.92 119.91 336.44 119.91 335.95 119.91 335.47 119.91 334.99 119.91 334.51 119.91 334.03 119.91 333.54 119.91 333.06 119.91 332.58 119.91 332.1 119.91 331.62 119.91 331.13 119.91 330.65 119.91 330.17 119.91 329.69 119.91 329.21 119.91 328.72 119.91 328.24 119.91 327.76 119.91 327.28 119.91 326.8 119.91 326.31 119.91 325.83 119.91 325.35 119.91 324.87 119.91 324.39 119.91 323.9 119.91 323.42 119.91 322.94 119.91 322.46 119.91 321.98 119.91 321.49 119.91 321.01 119.91 320.53 119.91 320.05 119.91 319.57 119.91 319.08 119.91 318.6 119.91 318.12 119.91 317.64 119.91 317.16 119.91 316.67 119.91 316.19 119.91 315.71 119.91 315.23 119.91 314.75 119.91 314.26 119.91 313.78 119.91 313.3 119.91 312.82 119.91 312.34 119.91 311.85 119.91 311.37 119.91 310.89 119.91 310.41 119.91 309.93 119.91 309.44 119.91 308.96 119.91 308.48 119.91 308 119.91 307.52 119.91 307.03 119.91 306.55 119.91 306.07 119.91 305.59 119.91 305.11 119.91 304.62 119.91 304.14 119.91 303.66 119.91 303.18 119.91 302.7 119.91 302.21 119.91 301.73 119.91 301.25 119.91 300.77 119.91 300.29 119.91 299.8 119.91 299.32 119.91 298.84 119.91 298.36 119.91 297.88 119.91 297.39 119.91 296.91 119.91 296.43 119.91 295.95 119.91 295.47 119.91 294.98 119.91 294.5 119.91 294.02 119.91 293.54 119.91 293.06 119.91 292.57 119.91 292.09 119.91 291.61 119.91 291.13 119.91 290.65 119.91 290.16 119.91 289.68 119.91 289.2 119.91 288.72 119.91 288.24 119.91 287.75 119.91 287.27 119.91 286.79 119.91 286.31 119.91 285.83 119.91 285.34 119.91 284.86 119.91 284.38 119.91 283.9 119.91 283.42 119.91 282.94 119.91 282.45 119.91 281.97 119.91 281.49 119.91 281.01 119.91 280.53 119.91 280.04 119.91 279.56 119.91 279.08 119.91 278.6 119.91 278.12 119.91 277.63 119.91 277.15 119.91 276.67 119.91 276.19 119.91 275.71 119.91 275.22 119.91 274.74 119.91 274.26 119.91 273.78 119.91 273.3 119.91 272.81 119.91 272.33 119.91 271.85 119.91 271.37 119.91 270.89 119.91 270.4 119.91 269.92 119.91 269.44 119.91 268.96 119.91 268.48 119.91 267.99 119.91 267.51 119.91 267.03 119.91 266.55 119.91 266.07 119.91 265.58 119.91 265.1 119.91 264.62 119.91 264.14 119.91 263.66 119.91 263.17 119.91 262.69 119.91 262.21 119.91 261.73 119.91 261.25 119.91 260.76 119.91 260.28 119.91 259.8 119.91 259.32 119.91 258.84 119.91 258.35 119.91 257.87 119.91 257.39 119.91 256.91 119.91 256.43 119.91 255.94 119.91 255.46 119.91 254.98 119.91 254.5 119.91 254.02 119.91 253.53 119.91 253.05 119.91 252.57 119.91 252.09 119.91 251.61 119.91 251.12 119.91 250.64 119.91 250.16 119.91 249.68 119.91 249.2 119.91 248.71 119.91 248.23 119.91 247.75 119.91 247.27 119.91 246.79 119.91 246.3 119.91 245.82 119.91 245.34 119.91 244.86 119.91 244.38 119.91 243.89 119.91 243.41 119.91 242.93 119.91 242.45 119.91 241.97 119.91 241.48 119.91 241 119.91 240.52 119.91 240.04 119.91 239.56 119.91 239.07 119.91 238.59 119.91 238.11 119.91 237.63 119.91 237.15 119.91 236.66 119.91 236.18 119.91 235.7 119.91 235.22 119.91 234.74 119.91 234.25 119.91 233.77 119.91 233.29 119.91 232.81 119.91 232.33 119.91 231.84 119.91 231.36 119.91 230.88 119.91 230.4 119.91 229.92 119.91 229.43 119.91 228.95 119.91 228.47 119.91 227.99 119.91 227.51 119.91 227.02 119.91 226.54 119.91 226.06 119.91 225.58 119.91 225.1 119.91 224.61 119.91 224.13 119.91 223.65 119.91 223.17 119.91 222.69 119.91 222.2 119.91 221.72 119.91 221.24 119.91 220.76 119.91 220.28 119.91 219.79 119.91 219.31 119.91 218.83 119.91 218.35 119.91 217.87 119.91 217.38 119.91 216.9 119.91 216.42 119.91 215.94 119.91 215.46 119.91 214.97 119.91 214.49 119.91 214.01 119.91 213.53 119.91 213.05 119.91 212.56 119.91 212.08 119.91 211.6 119.91 211.12 119.91 210.64 119.91 210.15 119.91 209.67 119.91 209.19 119.91 208.71 119.91 208.23 119.91 207.74 119.91 207.26 119.91 206.78 119.91 206.3 119.91 205.82 119.91 205.33 119.91 204.85 119.91 204.37 119.91 203.89 119.91 203.41 119.91 202.92 119.91 202.44 119.91 201.96 119.91 201.48 119.91 201 119.91 200.51 119.91 200.03 119.91 199.55 119.91 199.07 119.91 198.59 119.91 198.1 119.91 197.62 119.91 197.14 119.91 196.66 119.91 196.18 119.91 195.69 119.91 195.21 119.91 194.73 119.91 194.25 119.91 193.77 119.91 193.28 119.91 192.8 119.91 192.32 119.91 191.84 119.91 191.36 119.91 190.87 119.91 190.39 119.91 189.91 119.91 189.43 119.91 188.95 119.91 188.46 119.91 187.98 119.91 187.5 119.91 187.02 119.91 186.54 119.91 186.05 119.91 185.57 119.91 185.09 119.91 184.61 119.91 184.13 119.91 183.64 119.91 183.16 119.91 182.68 119.91 182.2 119.91 181.72 119.91 181.23 119.91 180.75 119.91 180.27 119.91 179.79 119.91 179.31 119.91 178.82 119.91 178.34 119.91 177.86 119.91 177.38 119.91"/>
      <polygon class="cls-12" points="177.38 146.17 177.86 146.17 178.34 146.17 178.82 146.17 179.31 146.17 179.79 146.17 180.27 146.17 180.75 146.17 181.23 146.17 181.72 146.17 182.2 146.17 182.68 146.17 183.16 146.17 183.64 146.17 184.13 146.17 184.61 146.17 185.09 146.17 185.57 146.17 186.05 146.17 186.54 146.17 187.02 146.17 187.5 146.17 187.98 146.17 188.46 146.17 188.95 146.17 189.43 146.17 189.91 146.17 190.39 146.17 190.87 146.17 191.36 146.17 191.84 146.17 192.32 146.17 192.8 146.17 193.28 146.17 193.77 146.17 194.25 146.17 194.73 146.17 195.21 146.17 195.69 146.17 196.18 146.17 196.66 146.17 197.14 146.17 197.62 146.17 198.1 146.17 198.59 146.17 199.07 146.17 199.55 146.17 200.03 146.17 200.51 146.17 201 146.17 201.48 146.17 201.96 146.17 202.44 146.17 202.92 146.17 203.41 146.17 203.89 146.17 204.37 146.17 204.85 146.17 205.33 146.17 205.82 146.17 206.3 146.17 206.78 146.17 207.26 146.17 207.74 146.17 208.23 146.17 208.71 146.17 209.19 146.17 209.67 146.17 210.15 146.17 210.64 146.17 211.12 146.17 211.6 146.17 212.08 146.16 212.56 146.16 213.05 146.16 213.53 146.16 214.01 146.16 214.49 146.16 214.97 146.16 215.46 146.16 215.94 146.16 216.42 146.16 216.9 146.16 217.38 146.16 217.87 146.15 218.35 146.15 218.83 146.15 219.31 146.15 219.79 146.14 220.28 146.14 220.76 146.14 221.24 146.13 221.72 146.13 222.2 146.12 222.69 146.11 223.17 146.11 223.65 146.1 224.13 146.09 224.61 146.08 225.1 146.07 225.58 146.06 226.06 146.04 226.54 146.03 227.02 146.01 227.51 145.99 227.99 145.97 228.47 145.95 228.95 145.93 229.43 145.9 229.92 145.87 230.4 145.84 230.88 145.8 231.36 145.77 231.84 145.73 232.33 145.68 232.81 145.63 233.29 145.58 233.77 145.53 234.25 145.47 234.74 145.4 235.22 145.34 235.7 145.27 236.18 145.19 236.66 145.1 237.15 145.02 237.63 144.92 238.11 144.82 238.59 144.72 239.07 144.61 239.56 144.5 240.04 144.37 240.52 144.25 241 144.11 241.48 143.97 241.97 143.83 242.45 143.68 242.93 143.52 243.41 143.36 243.89 143.19 244.38 143.02 244.86 142.83 245.34 142.65 245.82 142.46 246.3 142.27 246.79 142.06 247.27 141.86 247.75 141.65 248.23 141.44 248.71 141.23 249.2 141.01 249.68 140.79 250.16 140.56 250.64 140.34 251.12 140.11 251.61 139.88 252.09 139.65 252.57 139.42 253.05 139.18 253.53 138.95 254.02 138.72 254.5 138.49 254.98 138.26 255.46 138.03 255.94 137.8 256.43 137.57 256.91 137.34 257.39 137.12 257.87 136.89 258.35 136.67 258.84 136.45 259.32 136.23 259.8 136.01 260.28 135.79 260.76 135.57 261.25 135.35 261.73 135.14 262.21 134.92 262.69 134.7 263.17 134.48 263.66 134.27 264.14 134.04 264.62 133.82 265.1 133.6 265.58 133.37 266.07 133.14 266.55 132.9 267.03 132.66 267.51 132.41 267.99 132.16 268.48 131.9 268.96 131.64 269.44 131.36 269.92 131.08 270.4 130.79 270.89 130.5 271.37 130.19 271.85 129.87 272.33 129.54 272.81 129.2 273.3 128.84 273.78 128.48 274.26 128.11 274.74 127.71 275.22 127.31 275.71 126.9 276.19 126.47 276.67 126.03 277.15 125.57 277.63 125.1 278.12 124.62 278.6 124.13 279.08 123.62 279.56 123.1 280.04 122.56 280.53 122.02 281.01 121.46 281.49 120.89 281.97 120.32 282.45 119.73 282.94 119.13 283.42 118.53 283.9 117.92 284.38 117.3 284.86 116.68 285.34 116.06 285.83 115.43 286.31 114.8 286.79 114.18 287.27 113.56 287.75 112.94 288.24 112.32 288.72 111.72 289.2 111.12 289.68 110.53 290.16 109.96 290.65 109.4 291.13 108.86 291.61 108.34 292.09 107.83 292.57 107.35 293.06 106.89 293.54 106.46 294.02 106.06 294.5 105.68 294.98 105.33 295.47 105.01 295.95 104.73 296.43 104.49 296.91 104.27 297.39 104.09 297.88 103.96 298.36 103.85 298.84 103.78 299.32 103.76 299.8 103.78 300.29 103.83 300.77 103.92 301.25 104.05 301.73 104.22 302.21 104.42 302.7 104.67 303.18 104.96 303.66 105.27 304.14 105.63 304.62 106.02 305.11 106.44 305.59 106.88 306.07 107.37 306.55 107.88 307.03 108.41 307.52 108.96 308 109.55 308.48 110.15 308.96 110.77 309.44 111.41 309.93 112.06 310.41 112.73 310.89 113.41 311.37 114.1 311.85 114.79 312.34 115.49 312.82 116.19 313.3 116.9 313.78 117.61 314.26 118.31 314.75 119.02 315.23 119.72 315.71 120.41 316.19 121.1 316.67 121.78 317.16 122.45 317.64 123.11 318.12 123.76 318.6 124.4 319.08 125.02 319.57 125.64 320.05 126.24 320.53 126.83 321.01 127.4 321.49 127.97 321.98 128.51 322.46 129.05 322.94 129.57 323.42 130.07 323.9 130.56 324.39 131.04 324.87 131.51 325.35 131.96 325.83 132.4 326.31 132.83 326.8 133.25 327.28 133.65 327.76 134.05 328.24 134.43 328.72 134.81 329.21 135.17 329.69 135.53 330.17 135.88 330.65 136.21 331.13 136.54 331.62 136.87 332.1 137.18 332.58 137.49 333.06 137.79 333.54 138.09 334.03 138.37 334.51 138.66 334.99 138.93 335.47 139.2 335.95 139.47 336.44 139.73 336.92 139.98 337.4 140.23 337.88 140.47 338.36 140.71 338.85 140.94 339.33 141.17 339.81 141.39 340.29 141.6 340.77 141.81 341.26 142.02 341.74 142.22 342.22 142.41 342.7 142.6 343.18 142.78 343.67 142.96 344.15 143.13 344.63 143.29 345.11 143.45 345.59 143.61 346.08 143.76 346.56 143.9 347.04 144.03 347.52 144.17 348 144.29 348.49 144.41 348.97 144.52 349.45 144.63 349.93 144.74 350.41 144.84 350.9 144.93 351.38 145.02 351.86 145.1 352.34 145.18 352.82 145.26 353.31 145.33 353.79 145.39 354.27 145.45 354.75 145.51 355.23 145.57 355.72 145.62 356.2 145.66 356.68 145.71 357.16 145.75 357.64 145.78 358.13 145.82 358.61 145.85 359.09 145.88 359.57 145.91 360.05 145.93 360.54 145.96 361.02 145.98 361.5 146 361.98 146.01 362.46 146.03 362.95 146.04 363.43 146.06 363.91 146.07 364.39 146.08 364.87 146.09 365.36 146.1 365.84 146.11 366.32 146.11 366.8 146.12 367.28 146.12 367.77 146.13 368.25 146.13 368.73 146.14 369.21 146.14 369.69 146.14 370.18 146.15 370.66 146.15 371.14 146.15 371.62 146.15 372.1 146.16 372.59 146.16 373.07 146.16 373.55 146.16 374.03 146.16 374.51 146.16 375 146.16 375.48 146.16 375.96 146.16 376.44 146.16 376.92 146.16 377.41 146.16 377.89 146.17 378.37 146.17 378.85 146.17 379.33 146.17 379.82 146.17 380.3 146.17 380.78 146.17 381.26 146.17 381.74 146.17 382.23 146.17 382.71 146.17 383.19 146.17 383.67 146.17 384.15 146.17 384.64 146.17 385.12 146.17 385.6 146.17 386.08 146.17 386.56 146.17 387.05 146.17 387.53 146.17 388.01 146.17 388.49 146.17 388.97 146.17 389.46 146.17 389.94 146.17 390.42 146.17 390.9 146.17 391.38 146.17 391.87 146.17 392.35 146.17 392.83 146.17 393.31 146.17 393.79 146.17 394.28 146.17 394.76 146.17 395.24 146.17 395.72 146.17 396.2 146.17 396.69 146.17 397.17 146.17 397.65 146.17 398.13 146.17 398.61 146.17 399.1 146.17 399.58 146.17 400.06 146.17 400.54 146.17 401.02 146.17 401.51 146.17 401.99 146.17 402.47 146.17 402.95 146.17 403.43 146.17 403.92 146.17 404.4 146.17 404.88 146.17 405.36 146.17 405.84 146.17 406.33 146.17 406.81 146.17 407.29 146.17 407.77 146.17 408.25 146.17 408.74 146.17 409.22 146.17 409.7 146.17 410.18 146.17 410.66 146.17 411.15 146.17 411.63 146.17 412.11 146.17 412.59 146.17 413.07 146.17 413.56 146.17 414.04 146.17 414.52 146.17 415 146.17 415.48 146.17 415.97 146.17 416.45 146.17 416.93 146.17 417.41 146.17 417.89 146.17 418.38 146.17 418.86 146.17 419.34 146.17 419.82 146.17 420.3 146.17 420.79 146.17 421.27 146.17 421.75 146.17 422.23 146.17 422.71 146.17 423.2 146.17 423.68 146.17 423.2 146.17 422.71 146.17 422.23 146.17 421.75 146.17 421.27 146.17 420.79 146.17 420.3 146.17 419.82 146.17 419.34 146.17 418.86 146.17 418.38 146.17 417.89 146.17 417.41 146.17 416.93 146.17 416.45 146.17 415.97 146.17 415.48 146.17 415 146.17 414.52 146.17 414.04 146.17 413.56 146.17 413.07 146.17 412.59 146.17 412.11 146.17 411.63 146.17 411.15 146.17 410.66 146.17 410.18 146.17 409.7 146.17 409.22 146.17 408.74 146.17 408.25 146.17 407.77 146.17 407.29 146.17 406.81 146.17 406.33 146.17 405.84 146.17 405.36 146.17 404.88 146.17 404.4 146.17 403.92 146.17 403.43 146.17 402.95 146.17 402.47 146.17 401.99 146.17 401.51 146.17 401.02 146.17 400.54 146.17 400.06 146.17 399.58 146.17 399.1 146.17 398.61 146.17 398.13 146.17 397.65 146.17 397.17 146.17 396.69 146.17 396.2 146.17 395.72 146.17 395.24 146.17 394.76 146.17 394.28 146.17 393.79 146.17 393.31 146.17 392.83 146.17 392.35 146.17 391.87 146.17 391.38 146.17 390.9 146.17 390.42 146.17 389.94 146.17 389.46 146.17 388.97 146.17 388.49 146.17 388.01 146.17 387.53 146.17 387.05 146.17 386.56 146.17 386.08 146.17 385.6 146.17 385.12 146.17 384.64 146.17 384.15 146.17 383.67 146.17 383.19 146.17 382.71 146.17 382.23 146.17 381.74 146.17 381.26 146.17 380.78 146.17 380.3 146.17 379.82 146.17 379.33 146.17 378.85 146.17 378.37 146.17 377.89 146.17 377.41 146.17 376.92 146.17 376.44 146.17 375.96 146.17 375.48 146.17 375 146.17 374.51 146.17 374.03 146.17 373.55 146.17 373.07 146.17 372.59 146.17 372.1 146.17 371.62 146.17 371.14 146.17 370.66 146.17 370.18 146.17 369.69 146.17 369.21 146.17 368.73 146.17 368.25 146.17 367.77 146.17 367.28 146.17 366.8 146.17 366.32 146.17 365.84 146.17 365.36 146.17 364.87 146.17 364.39 146.17 363.91 146.17 363.43 146.17 362.95 146.17 362.46 146.17 361.98 146.17 361.5 146.17 361.02 146.17 360.54 146.17 360.05 146.17 359.57 146.17 359.09 146.17 358.61 146.17 358.13 146.17 357.64 146.17 357.16 146.17 356.68 146.17 356.2 146.17 355.72 146.17 355.23 146.17 354.75 146.17 354.27 146.17 353.79 146.17 353.31 146.17 352.82 146.17 352.34 146.17 351.86 146.17 351.38 146.17 350.9 146.17 350.41 146.17 349.93 146.17 349.45 146.17 348.97 146.17 348.49 146.17 348 146.17 347.52 146.17 347.04 146.17 346.56 146.17 346.08 146.17 345.59 146.17 345.11 146.17 344.63 146.17 344.15 146.17 343.67 146.17 343.18 146.17 342.7 146.17 342.22 146.17 341.74 146.17 341.26 146.17 340.77 146.17 340.29 146.17 339.81 146.17 339.33 146.17 338.85 146.17 338.36 146.17 337.88 146.17 337.4 146.17 336.92 146.17 336.44 146.17 335.95 146.17 335.47 146.17 334.99 146.17 334.51 146.17 334.03 146.17 333.54 146.17 333.06 146.17 332.58 146.17 332.1 146.17 331.62 146.17 331.13 146.17 330.65 146.17 330.17 146.17 329.69 146.17 329.21 146.17 328.72 146.17 328.24 146.17 327.76 146.17 327.28 146.17 326.8 146.17 326.31 146.17 325.83 146.17 325.35 146.17 324.87 146.17 324.39 146.17 323.9 146.17 323.42 146.17 322.94 146.17 322.46 146.17 321.98 146.17 321.49 146.17 321.01 146.17 320.53 146.17 320.05 146.17 319.57 146.17 319.08 146.17 318.6 146.17 318.12 146.17 317.64 146.17 317.16 146.17 316.67 146.17 316.19 146.17 315.71 146.17 315.23 146.17 314.75 146.17 314.26 146.17 313.78 146.17 313.3 146.17 312.82 146.17 312.34 146.17 311.85 146.17 311.37 146.17 310.89 146.17 310.41 146.17 309.93 146.17 309.44 146.17 308.96 146.17 308.48 146.17 308 146.17 307.52 146.17 307.03 146.17 306.55 146.17 306.07 146.17 305.59 146.17 305.11 146.17 304.62 146.17 304.14 146.17 303.66 146.17 303.18 146.17 302.7 146.17 302.21 146.17 301.73 146.17 301.25 146.17 300.77 146.17 300.29 146.17 299.8 146.17 299.32 146.17 298.84 146.17 298.36 146.17 297.88 146.17 297.39 146.17 296.91 146.17 296.43 146.17 295.95 146.17 295.47 146.17 294.98 146.17 294.5 146.17 294.02 146.17 293.54 146.17 293.06 146.17 292.57 146.17 292.09 146.17 291.61 146.17 291.13 146.17 290.65 146.17 290.16 146.17 289.68 146.17 289.2 146.17 288.72 146.17 288.24 146.17 287.75 146.17 287.27 146.17 286.79 146.17 286.31 146.17 285.83 146.17 285.34 146.17 284.86 146.17 284.38 146.17 283.9 146.17 283.42 146.17 282.94 146.17 282.45 146.17 281.97 146.17 281.49 146.17 281.01 146.17 280.53 146.17 280.04 146.17 279.56 146.17 279.08 146.17 278.6 146.17 278.12 146.17 277.63 146.17 277.15 146.17 276.67 146.17 276.19 146.17 275.71 146.17 275.22 146.17 274.74 146.17 274.26 146.17 273.78 146.17 273.3 146.17 272.81 146.17 272.33 146.17 271.85 146.17 271.37 146.17 270.89 146.17 270.4 146.17 269.92 146.17 269.44 146.17 268.96 146.17 268.48 146.17 267.99 146.17 267.51 146.17 267.03 146.17 266.55 146.17 266.07 146.17 265.58 146.17 265.1 146.17 264.62 146.17 264.14 146.17 263.66 146.17 263.17 146.17 262.69 146.17 262.21 146.17 261.73 146.17 261.25 146.17 260.76 146.17 260.28 146.17 259.8 146.17 259.32 146.17 258.84 146.17 258.35 146.17 257.87 146.17 257.39 146.17 256.91 146.17 256.43 146.17 255.94 146.17 255.46 146.17 254.98 146.17 254.5 146.17 254.02 146.17 253.53 146.17 253.05 146.17 252.57 146.17 252.09 146.17 251.61 146.17 251.12 146.17 250.64 146.17 250.16 146.17 249.68 146.17 249.2 146.17 248.71 146.17 248.23 146.17 247.75 146.17 247.27 146.17 246.79 146.17 246.3 146.17 245.82 146.17 245.34 146.17 244.86 146.17 244.38 146.17 243.89 146.17 243.41 146.17 242.93 146.17 242.45 146.17 241.97 146.17 241.48 146.17 241 146.17 240.52 146.17 240.04 146.17 239.56 146.17 239.07 146.17 238.59 146.17 238.11 146.17 237.63 146.17 237.15 146.17 236.66 146.17 236.18 146.17 235.7 146.17 235.22 146.17 234.74 146.17 234.25 146.17 233.77 146.17 233.29 146.17 232.81 146.17 232.33 146.17 231.84 146.17 231.36 146.17 230.88 146.17 230.4 146.17 229.92 146.17 229.43 146.17 228.95 146.17 228.47 146.17 227.99 146.17 227.51 146.17 227.02 146.17 226.54 146.17 226.06 146.17 225.58 146.17 225.1 146.17 224.61 146.17 224.13 146.17 223.65 146.17 223.17 146.17 222.69 146.17 222.2 146.17 221.72 146.17 221.24 146.17 220.76 146.17 220.28 146.17 219.79 146.17 219.31 146.17 218.83 146.17 218.35 146.17 217.87 146.17 217.38 146.17 216.9 146.17 216.42 146.17 215.94 146.17 215.46 146.17 214.97 146.17 214.49 146.17 214.01 146.17 213.53 146.17 213.05 146.17 212.56 146.17 212.08 146.17 211.6 146.17 211.12 146.17 210.64 146.17 210.15 146.17 209.67 146.17 209.19 146.17 208.71 146.17 208.23 146.17 207.74 146.17 207.26 146.17 206.78 146.17 206.3 146.17 205.82 146.17 205.33 146.17 204.85 146.17 204.37 146.17 203.89 146.17 203.41 146.17 202.92 146.17 202.44 146.17 201.96 146.17 201.48 146.17 201 146.17 200.51 146.17 200.03 146.17 199.55 146.17 199.07 146.17 198.59 146.17 198.1 146.17 197.62 146.17 197.14 146.17 196.66 146.17 196.18 146.17 195.69 146.17 195.21 146.17 194.73 146.17 194.25 146.17 193.77 146.17 193.28 146.17 192.8 146.17 192.32 146.17 191.84 146.17 191.36 146.17 190.87 146.17 190.39 146.17 189.91 146.17 189.43 146.17 188.95 146.17 188.46 146.17 187.98 146.17 187.5 146.17 187.02 146.17 186.54 146.17 186.05 146.17 185.57 146.17 185.09 146.17 184.61 146.17 184.13 146.17 183.64 146.17 183.16 146.17 182.68 146.17 182.2 146.17 181.72 146.17 181.23 146.17 180.75 146.17 180.27 146.17 179.79 146.17 179.31 146.17 178.82 146.17 178.34 146.17 177.86 146.17 177.38 146.17"/>
      <polygon class="cls-11" points="177.38 172.42 177.86 172.42 178.34 172.42 178.82 172.42 179.31 172.42 179.79 172.42 180.27 172.42 180.75 172.42 181.23 172.42 181.72 172.42 182.2 172.42 182.68 172.42 183.16 172.42 183.64 172.42 184.13 172.42 184.61 172.42 185.09 172.42 185.57 172.42 186.05 172.42 186.54 172.42 187.02 172.42 187.5 172.42 187.98 172.42 188.46 172.42 188.95 172.42 189.43 172.42 189.91 172.42 190.39 172.42 190.87 172.42 191.36 172.42 191.84 172.42 192.32 172.42 192.8 172.42 193.28 172.42 193.77 172.42 194.25 172.42 194.73 172.42 195.21 172.42 195.69 172.42 196.18 172.42 196.66 172.42 197.14 172.42 197.62 172.42 198.1 172.42 198.59 172.42 199.07 172.42 199.55 172.42 200.03 172.42 200.51 172.42 201 172.42 201.48 172.42 201.96 172.42 202.44 172.42 202.92 172.42 203.41 172.42 203.89 172.41 204.37 172.41 204.85 172.41 205.33 172.41 205.82 172.41 206.3 172.41 206.78 172.41 207.26 172.41 207.74 172.4 208.23 172.4 208.71 172.4 209.19 172.4 209.67 172.39 210.15 172.39 210.64 172.38 211.12 172.38 211.6 172.37 212.08 172.37 212.56 172.36 213.05 172.35 213.53 172.34 214.01 172.33 214.49 172.32 214.97 172.31 215.46 172.29 215.94 172.28 216.42 172.26 216.9 172.24 217.38 172.22 217.87 172.2 218.35 172.17 218.83 172.15 219.31 172.12 219.79 172.09 220.28 172.05 220.76 172.01 221.24 171.97 221.72 171.93 222.2 171.88 222.69 171.83 223.17 171.77 223.65 171.71 224.13 171.65 224.61 171.58 225.1 171.5 225.58 171.42 226.06 171.34 226.54 171.25 227.02 171.16 227.51 171.06 227.99 170.96 228.47 170.85 228.95 170.73 229.43 170.61 229.92 170.48 230.4 170.35 230.88 170.21 231.36 170.07 231.84 169.92 232.33 169.77 232.81 169.61 233.29 169.45 233.77 169.28 234.25 169.11 234.74 168.94 235.22 168.76 235.7 168.58 236.18 168.39 236.66 168.21 237.15 168.02 237.63 167.83 238.11 167.64 238.59 167.45 239.07 167.26 239.56 167.07 240.04 166.88 240.52 166.69 241 166.51 241.48 166.33 241.97 166.15 242.45 165.98 242.93 165.81 243.41 165.65 243.89 165.49 244.38 165.34 244.86 165.19 245.34 165.05 245.82 164.92 246.3 164.79 246.79 164.68 247.27 164.57 247.75 164.47 248.23 164.37 248.71 164.29 249.2 164.21 249.68 164.13 250.16 164.07 250.64 164.01 251.12 163.96 251.61 163.91 252.09 163.87 252.57 163.83 253.05 163.8 253.53 163.77 254.02 163.74 254.5 163.71 254.98 163.69 255.46 163.66 255.94 163.64 256.43 163.61 256.91 163.58 257.39 163.55 257.87 163.51 258.35 163.47 258.84 163.42 259.32 163.37 259.8 163.31 260.28 163.24 260.76 163.16 261.25 163.07 261.73 162.97 262.21 162.86 262.69 162.74 263.17 162.61 263.66 162.47 264.14 162.31 264.62 162.14 265.1 161.97 265.58 161.77 266.07 161.57 266.55 161.35 267.03 161.12 267.51 160.88 267.99 160.63 268.48 160.37 268.96 160.09 269.44 159.81 269.92 159.51 270.4 159.21 270.89 158.9 271.37 158.57 271.85 158.24 272.33 157.91 272.81 157.56 273.3 157.22 273.78 156.86 274.26 156.5 274.74 156.14 275.22 155.78 275.71 155.41 276.19 155.04 276.67 154.66 277.15 154.29 277.63 153.91 278.12 153.54 278.6 153.16 279.08 152.78 279.56 152.41 280.04 152.03 280.53 151.65 281.01 151.28 281.49 150.9 281.97 150.52 282.45 150.15 282.94 149.77 283.42 149.4 283.9 149.02 284.38 148.64 284.86 148.27 285.34 147.89 285.83 147.51 286.31 147.13 286.79 146.75 287.27 146.36 287.75 145.98 288.24 145.59 288.72 145.2 289.2 144.81 289.68 144.42 290.16 144.03 290.65 143.64 291.13 143.24 291.61 142.84 292.09 142.45 292.57 142.05 293.06 141.66 293.54 141.26 294.02 140.87 294.5 140.48 294.98 140.1 295.47 139.72 295.95 139.34 296.43 138.98 296.91 138.62 297.39 138.27 297.88 137.93 298.36 137.61 298.84 137.29 299.32 136.99 299.8 136.71 300.29 136.44 300.77 136.2 301.25 135.97 301.73 135.76 302.21 135.58 302.7 135.42 303.18 135.28 303.66 135.17 304.14 135.08 304.62 135.02 305.11 134.99 305.59 134.98 306.07 135.01 306.55 135.06 307.03 135.14 307.52 135.24 308 135.39 308.48 135.56 308.96 135.75 309.44 135.97 309.93 136.23 310.41 136.5 310.89 136.8 311.37 137.13 311.85 137.49 312.34 137.87 312.82 138.26 313.3 138.69 313.78 139.13 314.26 139.59 314.75 140.07 315.23 140.57 315.71 141.08 316.19 141.6 316.67 142.14 317.16 142.7 317.64 143.26 318.12 143.83 318.6 144.41 319.08 145 319.57 145.59 320.05 146.19 320.53 146.79 321.01 147.39 321.49 148 321.98 148.61 322.46 149.22 322.94 149.83 323.42 150.44 323.9 151.05 324.39 151.65 324.87 152.25 325.35 152.85 325.83 153.44 326.31 154.03 326.8 154.62 327.28 155.19 327.76 155.77 328.24 156.33 328.72 156.89 329.21 157.44 329.69 157.99 330.17 158.52 330.65 159.05 331.13 159.57 331.62 160.07 332.1 160.58 332.58 161.06 333.06 161.54 333.54 162.02 334.03 162.47 334.51 162.92 334.99 163.36 335.47 163.79 335.95 164.2 336.44 164.61 336.92 165 337.4 165.38 337.88 165.75 338.36 166.1 338.85 166.45 339.33 166.78 339.81 167.1 340.29 167.41 340.77 167.71 341.26 167.99 341.74 168.26 342.22 168.52 342.7 168.77 343.18 169.01 343.67 169.23 344.15 169.45 344.63 169.66 345.11 169.85 345.59 170.03 346.08 170.21 346.56 170.37 347.04 170.52 347.52 170.67 348 170.81 348.49 170.93 348.97 171.05 349.45 171.17 349.93 171.27 350.41 171.37 350.9 171.46 351.38 171.54 351.86 171.62 352.34 171.69 352.82 171.76 353.31 171.82 353.79 171.88 354.27 171.93 354.75 171.98 355.23 172.02 355.72 172.06 356.2 172.1 356.68 172.13 357.16 172.16 357.64 172.19 358.13 172.21 358.61 172.23 359.09 172.25 359.57 172.27 360.05 172.29 360.54 172.3 361.02 172.32 361.5 172.33 361.98 172.34 362.46 172.35 362.95 172.36 363.43 172.37 363.91 172.37 364.39 172.38 364.87 172.38 365.36 172.39 365.84 172.39 366.32 172.4 366.8 172.4 367.28 172.4 367.77 172.4 368.25 172.41 368.73 172.41 369.21 172.41 369.69 172.41 370.18 172.41 370.66 172.41 371.14 172.41 371.62 172.42 372.1 172.42 372.59 172.42 373.07 172.42 373.55 172.42 374.03 172.42 374.51 172.42 375 172.42 375.48 172.42 375.96 172.42 376.44 172.42 376.92 172.42 377.41 172.42 377.89 172.42 378.37 172.42 378.85 172.42 379.33 172.42 379.82 172.42 380.3 172.42 380.78 172.42 381.26 172.42 381.74 172.42 382.23 172.42 382.71 172.42 383.19 172.42 383.67 172.42 384.15 172.42 384.64 172.42 385.12 172.42 385.6 172.42 386.08 172.42 386.56 172.42 387.05 172.42 387.53 172.42 388.01 172.42 388.49 172.42 388.97 172.42 389.46 172.42 389.94 172.42 390.42 172.42 390.9 172.42 391.38 172.42 391.87 172.42 392.35 172.42 392.83 172.42 393.31 172.42 393.79 172.42 394.28 172.42 394.76 172.42 395.24 172.42 395.72 172.42 396.2 172.42 396.69 172.42 397.17 172.42 397.65 172.42 398.13 172.42 398.61 172.42 399.1 172.42 399.58 172.42 400.06 172.42 400.54 172.42 401.02 172.42 401.51 172.42 401.99 172.42 402.47 172.42 402.95 172.42 403.43 172.42 403.92 172.42 404.4 172.42 404.88 172.42 405.36 172.42 405.84 172.42 406.33 172.42 406.81 172.42 407.29 172.42 407.77 172.42 408.25 172.42 408.74 172.42 409.22 172.42 409.7 172.42 410.18 172.42 410.66 172.42 411.15 172.42 411.63 172.42 412.11 172.42 412.59 172.42 413.07 172.42 413.56 172.42 414.04 172.42 414.52 172.42 415 172.42 415.48 172.42 415.97 172.42 416.45 172.42 416.93 172.42 417.41 172.42 417.89 172.42 418.38 172.42 418.86 172.42 419.34 172.42 419.82 172.42 420.3 172.42 420.79 172.42 421.27 172.42 421.75 172.42 422.23 172.42 422.71 172.42 423.2 172.42 423.68 172.42 423.2 172.42 422.71 172.42 422.23 172.42 421.75 172.42 421.27 172.42 420.79 172.42 420.3 172.42 419.82 172.42 419.34 172.42 418.86 172.42 418.38 172.42 417.89 172.42 417.41 172.42 416.93 172.42 416.45 172.42 415.97 172.42 415.48 172.42 415 172.42 414.52 172.42 414.04 172.42 413.56 172.42 413.07 172.42 412.59 172.42 412.11 172.42 411.63 172.42 411.15 172.42 410.66 172.42 410.18 172.42 409.7 172.42 409.22 172.42 408.74 172.42 408.25 172.42 407.77 172.42 407.29 172.42 406.81 172.42 406.33 172.42 405.84 172.42 405.36 172.42 404.88 172.42 404.4 172.42 403.92 172.42 403.43 172.42 402.95 172.42 402.47 172.42 401.99 172.42 401.51 172.42 401.02 172.42 400.54 172.42 400.06 172.42 399.58 172.42 399.1 172.42 398.61 172.42 398.13 172.42 397.65 172.42 397.17 172.42 396.69 172.42 396.2 172.42 395.72 172.42 395.24 172.42 394.76 172.42 394.28 172.42 393.79 172.42 393.31 172.42 392.83 172.42 392.35 172.42 391.87 172.42 391.38 172.42 390.9 172.42 390.42 172.42 389.94 172.42 389.46 172.42 388.97 172.42 388.49 172.42 388.01 172.42 387.53 172.42 387.05 172.42 386.56 172.42 386.08 172.42 385.6 172.42 385.12 172.42 384.64 172.42 384.15 172.42 383.67 172.42 383.19 172.42 382.71 172.42 382.23 172.42 381.74 172.42 381.26 172.42 380.78 172.42 380.3 172.42 379.82 172.42 379.33 172.42 378.85 172.42 378.37 172.42 377.89 172.42 377.41 172.42 376.92 172.42 376.44 172.42 375.96 172.42 375.48 172.42 375 172.42 374.51 172.42 374.03 172.42 373.55 172.42 373.07 172.42 372.59 172.42 372.1 172.42 371.62 172.42 371.14 172.42 370.66 172.42 370.18 172.42 369.69 172.42 369.21 172.42 368.73 172.42 368.25 172.42 367.77 172.42 367.28 172.42 366.8 172.42 366.32 172.42 365.84 172.42 365.36 172.42 364.87 172.42 364.39 172.42 363.91 172.42 363.43 172.42 362.95 172.42 362.46 172.42 361.98 172.42 361.5 172.42 361.02 172.42 360.54 172.42 360.05 172.42 359.57 172.42 359.09 172.42 358.61 172.42 358.13 172.42 357.64 172.42 357.16 172.42 356.68 172.42 356.2 172.42 355.72 172.42 355.23 172.42 354.75 172.42 354.27 172.42 353.79 172.42 353.31 172.42 352.82 172.42 352.34 172.42 351.86 172.42 351.38 172.42 350.9 172.42 350.41 172.42 349.93 172.42 349.45 172.42 348.97 172.42 348.49 172.42 348 172.42 347.52 172.42 347.04 172.42 346.56 172.42 346.08 172.42 345.59 172.42 345.11 172.42 344.63 172.42 344.15 172.42 343.67 172.42 343.18 172.42 342.7 172.42 342.22 172.42 341.74 172.42 341.26 172.42 340.77 172.42 340.29 172.42 339.81 172.42 339.33 172.42 338.85 172.42 338.36 172.42 337.88 172.42 337.4 172.42 336.92 172.42 336.44 172.42 335.95 172.42 335.47 172.42 334.99 172.42 334.51 172.42 334.03 172.42 333.54 172.42 333.06 172.42 332.58 172.42 332.1 172.42 331.62 172.42 331.13 172.42 330.65 172.42 330.17 172.42 329.69 172.42 329.21 172.42 328.72 172.42 328.24 172.42 327.76 172.42 327.28 172.42 326.8 172.42 326.31 172.42 325.83 172.42 325.35 172.42 324.87 172.42 324.39 172.42 323.9 172.42 323.42 172.42 322.94 172.42 322.46 172.42 321.98 172.42 321.49 172.42 321.01 172.42 320.53 172.42 320.05 172.42 319.57 172.42 319.08 172.42 318.6 172.42 318.12 172.42 317.64 172.42 317.16 172.42 316.67 172.42 316.19 172.42 315.71 172.42 315.23 172.42 314.75 172.42 314.26 172.42 313.78 172.42 313.3 172.42 312.82 172.42 312.34 172.42 311.85 172.42 311.37 172.42 310.89 172.42 310.41 172.42 309.93 172.42 309.44 172.42 308.96 172.42 308.48 172.42 308 172.42 307.52 172.42 307.03 172.42 306.55 172.42 306.07 172.42 305.59 172.42 305.11 172.42 304.62 172.42 304.14 172.42 303.66 172.42 303.18 172.42 302.7 172.42 302.21 172.42 301.73 172.42 301.25 172.42 300.77 172.42 300.29 172.42 299.8 172.42 299.32 172.42 298.84 172.42 298.36 172.42 297.88 172.42 297.39 172.42 296.91 172.42 296.43 172.42 295.95 172.42 295.47 172.42 294.98 172.42 294.5 172.42 294.02 172.42 293.54 172.42 293.06 172.42 292.57 172.42 292.09 172.42 291.61 172.42 291.13 172.42 290.65 172.42 290.16 172.42 289.68 172.42 289.2 172.42 288.72 172.42 288.24 172.42 287.75 172.42 287.27 172.42 286.79 172.42 286.31 172.42 285.83 172.42 285.34 172.42 284.86 172.42 284.38 172.42 283.9 172.42 283.42 172.42 282.94 172.42 282.45 172.42 281.97 172.42 281.49 172.42 281.01 172.42 280.53 172.42 280.04 172.42 279.56 172.42 279.08 172.42 278.6 172.42 278.12 172.42 277.63 172.42 277.15 172.42 276.67 172.42 276.19 172.42 275.71 172.42 275.22 172.42 274.74 172.42 274.26 172.42 273.78 172.42 273.3 172.42 272.81 172.42 272.33 172.42 271.85 172.42 271.37 172.42 270.89 172.42 270.4 172.42 269.92 172.42 269.44 172.42 268.96 172.42 268.48 172.42 267.99 172.42 267.51 172.42 267.03 172.42 266.55 172.42 266.07 172.42 265.58 172.42 265.1 172.42 264.62 172.42 264.14 172.42 263.66 172.42 263.17 172.42 262.69 172.42 262.21 172.42 261.73 172.42 261.25 172.42 260.76 172.42 260.28 172.42 259.8 172.42 259.32 172.42 258.84 172.42 258.35 172.42 257.87 172.42 257.39 172.42 256.91 172.42 256.43 172.42 255.94 172.42 255.46 172.42 254.98 172.42 254.5 172.42 254.02 172.42 253.53 172.42 253.05 172.42 252.57 172.42 252.09 172.42 251.61 172.42 251.12 172.42 250.64 172.42 250.16 172.42 249.68 172.42 249.2 172.42 248.71 172.42 248.23 172.42 247.75 172.42 247.27 172.42 246.79 172.42 246.3 172.42 245.82 172.42 245.34 172.42 244.86 172.42 244.38 172.42 243.89 172.42 243.41 172.42 242.93 172.42 242.45 172.42 241.97 172.42 241.48 172.42 241 172.42 240.52 172.42 240.04 172.42 239.56 172.42 239.07 172.42 238.59 172.42 238.11 172.42 237.63 172.42 237.15 172.42 236.66 172.42 236.18 172.42 235.7 172.42 235.22 172.42 234.74 172.42 234.25 172.42 233.77 172.42 233.29 172.42 232.81 172.42 232.33 172.42 231.84 172.42 231.36 172.42 230.88 172.42 230.4 172.42 229.92 172.42 229.43 172.42 228.95 172.42 228.47 172.42 227.99 172.42 227.51 172.42 227.02 172.42 226.54 172.42 226.06 172.42 225.58 172.42 225.1 172.42 224.61 172.42 224.13 172.42 223.65 172.42 223.17 172.42 222.69 172.42 222.2 172.42 221.72 172.42 221.24 172.42 220.76 172.42 220.28 172.42 219.79 172.42 219.31 172.42 218.83 172.42 218.35 172.42 217.87 172.42 217.38 172.42 216.9 172.42 216.42 172.42 215.94 172.42 215.46 172.42 214.97 172.42 214.49 172.42 214.01 172.42 213.53 172.42 213.05 172.42 212.56 172.42 212.08 172.42 211.6 172.42 211.12 172.42 210.64 172.42 210.15 172.42 209.67 172.42 209.19 172.42 208.71 172.42 208.23 172.42 207.74 172.42 207.26 172.42 206.78 172.42 206.3 172.42 205.82 172.42 205.33 172.42 204.85 172.42 204.37 172.42 203.89 172.42 203.41 172.42 202.92 172.42 202.44 172.42 201.96 172.42 201.48 172.42 201 172.42 200.51 172.42 200.03 172.42 199.55 172.42 199.07 172.42 198.59 172.42 198.1 172.42 197.62 172.42 197.14 172.42 196.66 172.42 196.18 172.42 195.69 172.42 195.21 172.42 194.73 172.42 194.25 172.42 193.77 172.42 193.28 172.42 192.8 172.42 192.32 172.42 191.84 172.42 191.36 172.42 190.87 172.42 190.39 172.42 189.91 172.42 189.43 172.42 188.95 172.42 188.46 172.42 187.98 172.42 187.5 172.42 187.02 172.42 186.54 172.42 186.05 172.42 185.57 172.42 185.09 172.42 184.61 172.42 184.13 172.42 183.64 172.42 183.16 172.42 182.68 172.42 182.2 172.42 181.72 172.42 181.23 172.42 180.75 172.42 180.27 172.42 179.79 172.42 179.31 172.42 178.82 172.42 178.34 172.42 177.86 172.42 177.38 172.42"/>
      <line class="cls-4" x1="275.57" y1="188.17" x2="275.57" y2="20.15"/>
    </g>
    <text class="cls-19" transform="translate(111.74 172.42)"><tspan x="0" y="0">memo</tspan><tspan class="cls-22" x="33.34" y="0">r</tspan><tspan x="37.5" y="0">ia</tspan></text>
    <text class="cls-19" transform="translate(113.23 146.17)"><tspan x="0" y="0">atencion</tspan></text>
    <text class="cls-19" transform="translate(113.23 119.91)"><tspan x="0" y="0">lenguaje</tspan></text>
    <text class="cls-19" transform="translate(47.5 93.66)"><tspan x="0" y="0">funciones_ejecuti</tspan><tspan class="cls-25" x="92.73" y="0">v</tspan><tspan x="98.44" y="0">as</tspan></text>
    <text class="cls-19" transform="translate(94.14 67.41)"><tspan x="0" y="0">r</tspan><tspan class="cls-32" x="4" y="0">e</tspan><tspan x="10.43" y="0">y_copia_z</tspan></text>
    <text class="cls-19" transform="translate(96.69 41.16)"><tspan x="0" y="0">mi</tspan><tspan class="cls-31" x="12.66" y="0">r</tspan><tspan x="16.54" y="0">adas_pz</tspan></text>
    <line class="cls-6" x1="161.58" y1="172.42" x2="165.06" y2="172.42"/>
    <line class="cls-6" x1="161.58" y1="146.17" x2="165.06" y2="146.17"/>
    <line class="cls-6" x1="161.58" y1="119.91" x2="165.06" y2="119.91"/>
    <line class="cls-6" x1="161.58" y1="93.66" x2="165.06" y2="93.66"/>
    <line class="cls-6" x1="161.58" y1="67.41" x2="165.06" y2="67.41"/>
    <line class="cls-6" x1="161.58" y1="41.16" x2="165.06" y2="41.16"/>
    <line class="cls-6" x1="186.3" y1="191.66" x2="186.3" y2="188.17"/>
    <line class="cls-6" x1="250.07" y1="191.66" x2="250.07" y2="188.17"/>
    <line class="cls-6" x1="313.83" y1="191.66" x2="313.83" y2="188.17"/>
    <line class="cls-6" x1="377.6" y1="191.66" x2="377.6" y2="188.17"/>
    <text class="cls-19" transform="translate(174.45 203.26)"><tspan x="0" y="0">5.0</tspan></text>
    <text class="cls-19" transform="translate(238.22 203.26)"><tspan x="0" y="0">2.5</tspan></text>
    <text class="cls-19" transform="translate(305.49 203.26)"><tspan x="0" y="0">0.0</tspan></text>
    <text class="cls-19" transform="translate(369.26 203.26)"><tspan x="0" y="0">2.5</tspan></text>
    <text class="cls-20" transform="translate(402.88 223.06)"><tspan class="cls-23" x="0" y="0">v</tspan><tspan x="6.65" y="0">alue</tspan></text>
    <text class="cls-20" transform="translate(40.12 68.75) rotate(-90)"><tspan class="cls-18" x="0" y="0">v</tspan><tspan x="6.65" y="0">a</tspan><tspan class="cls-24" x="14.44" y="0">r</tspan><tspan x="19.29" y="0">ia</tspan><tspan class="cls-32" x="30.19" y="0">b</tspan><tspan x="37.7" y="0">le</tspan></text>
  </g>
  <rect class="cls-1" x="21.97" width="139.41" height="185.27"/>
  <text class="cls-14" transform="translate(65.21 42.19)"><tspan x="0" y="0">Cognicin social</tspan></text>
  <text class="cls-14" transform="translate(1.56 68.62)"><tspan x="0" y="0">Habilidades visuoespaciales</tspan></text>
  <text class="cls-14" transform="translate(40.18 96.04)"><tspan x="0" y="0">Funciones ejecuti</tspan><tspan class="cls-30" x="93.62" y="0">v</tspan><tspan x="99.58" y="0">as</tspan></text>
  <text class="cls-14" transform="translate(102.92 121.96)"><tspan x="0" y="0">Lenguaje</tspan></text>
  <text class="cls-14" transform="translate(103.42 147.89)"><tspan class="cls-3" x="0" y="0">A</tspan><tspan class="cls-21" x="7.48" y="0">t</tspan><tspan x="11.83" y="0">encin</tspan></text>
  <text class="cls-14" transform="translate(101.66 173.82)"><tspan x="0" y="0">Memoria</tspan></text>
  <rect class="cls-2" x="143.04" y="194.63" width="310.01" height="39.8"/>
  <text class="cls-17" transform="translate(137.54 211.31)"><tspan class="cls-16" x="0" y="0" xml:space="preserve">                   -5                       -2.5     </tspan><tspan class="cls-29" x="130.25" y="0">-1.5 </tspan><tspan class="cls-16" x="148.38" y="0" xml:space="preserve">            0                        2.5</tspan></text>
  <text class="cls-15" transform="translate(122.39 210.49)"><tspan x="0" y="0">z s</tspan><tspan class="cls-28" x="10.06" y="0">c</tspan><tspan x="14.17" y="0">ore</tspan></text>
  <rect class="cls-1" x="429.67" y="213.03" width="39.55" height="39.55"/>
  <line class="cls-27" x1="275.57" y1="20.15" x2="275.57" y2="188.17"/>
</svg>